<?xml version="1.0" encoding="utf-8" standalone="no"?>
<!DOCTYPE svg PUBLIC "-//W3C//DTD SVG 1.1//EN"
  "http://www.w3.org/Graphics/SVG/1.1/DTD/svg11.dtd">
<svg xmlns:xlink="http://www.w3.org/1999/xlink" width="460.8pt" height="345.6pt" viewBox="0 0 460.8 345.6" xmlns="http://www.w3.org/2000/svg" version="1.1">
 <metadata>
  <rdf:RDF xmlns:dc="http://purl.org/dc/elements/1.1/" xmlns:cc="http://creativecommons.org/ns#" xmlns:rdf="http://www.w3.org/1999/02/22-rdf-syntax-ns#">
   <cc:Work>
    <dc:type rdf:resource="http://purl.org/dc/dcmitype/StillImage"/>
    <dc:date>2025-03-23T18:55:48.150861</dc:date>
    <dc:format>image/svg+xml</dc:format>
    <dc:creator>
     <cc:Agent>
      <dc:title>Matplotlib v3.8.0, https://matplotlib.org/</dc:title>
     </cc:Agent>
    </dc:creator>
   </cc:Work>
  </rdf:RDF>
 </metadata>
 <defs>
  <style type="text/css">*{stroke-linejoin: round; stroke-linecap: butt}</style>
 </defs>
 <g id="figure_1">
  <g id="patch_1">
   <path d="M 0 345.6 
L 460.8 345.6 
L 460.8 0 
L 0 0 
z
" style="fill: #ffffff"/>
  </g>
  <g id="axes_1">
   <g id="patch_2">
    <path d="M 57.6 307.584 
L 414.72 307.584 
L 414.72 41.472 
L 57.6 41.472 
z
" style="fill: #ffffff"/>
   </g>
   <g id="PolyCollection_1">
    <defs>
     <path id="me239ead7cb" d="M 73.832727 -74.304 
L 73.832727 -292.032 
L 77.112066 -289.588364 
L 80.391405 -287.144727 
L 83.670744 -284.701091 
L 86.950083 -282.257455 
L 90.229421 -279.813818 
L 93.50876 -277.370182 
L 96.788099 -274.926545 
L 100.067438 -272.482909 
L 103.346777 -270.039273 
L 106.626116 -267.595636 
L 109.905455 -265.152 
L 113.184793 -262.708364 
L 116.464132 -260.264727 
L 119.743471 -257.821091 
L 123.02281 -255.377455 
L 126.302149 -252.933818 
L 129.581488 -250.490182 
L 132.860826 -248.046545 
L 136.140165 -245.602909 
L 139.419504 -243.159273 
L 142.698843 -240.715636 
L 145.978182 -238.272 
L 149.257521 -235.828364 
L 152.53686 -233.384727 
L 155.816198 -230.941091 
L 159.095537 -228.497455 
L 162.374876 -226.053818 
L 165.654215 -223.610182 
L 168.933554 -221.166545 
L 172.212893 -218.722909 
L 175.492231 -216.279273 
L 178.77157 -213.835636 
L 182.050909 -211.392 
L 185.330248 -208.948364 
L 188.609587 -206.504727 
L 191.888926 -204.061091 
L 195.168264 -201.617455 
L 198.447603 -199.173818 
L 201.726942 -196.730182 
L 205.006281 -194.286545 
L 208.28562 -191.842909 
L 211.564959 -189.399273 
L 214.844298 -186.955636 
L 218.123636 -184.512 
L 221.402975 -182.068364 
L 224.682314 -179.624727 
L 227.961653 -177.181091 
L 231.240992 -174.737455 
L 234.520331 -172.293818 
L 237.799669 -169.850182 
L 241.079008 -167.406545 
L 244.358347 -164.962909 
L 247.637686 -162.519273 
L 250.917025 -160.075636 
L 254.196364 -157.632 
L 257.475702 -155.188364 
L 260.755041 -152.744727 
L 264.03438 -150.301091 
L 267.313719 -147.857455 
L 270.593058 -145.413818 
L 273.872397 -142.970182 
L 277.151736 -140.526545 
L 280.431074 -138.082909 
L 283.710413 -135.639273 
L 286.989752 -133.195636 
L 290.269091 -130.752 
L 293.54843 -128.308364 
L 296.827769 -125.864727 
L 300.107107 -123.421091 
L 303.386446 -120.977455 
L 306.665785 -118.533818 
L 309.945124 -116.090182 
L 313.224463 -113.646545 
L 316.503802 -111.202909 
L 319.78314 -108.759273 
L 323.062479 -106.315636 
L 326.341818 -103.872 
L 329.621157 -101.428364 
L 332.900496 -98.984727 
L 336.179835 -96.541091 
L 339.459174 -94.097455 
L 342.738512 -91.653818 
L 346.017851 -89.210182 
L 349.29719 -86.766545 
L 352.576529 -84.322909 
L 355.855868 -81.879273 
L 359.135207 -79.435636 
L 362.414545 -76.992 
L 365.693884 -74.548364 
L 368.973223 -72.104727 
L 372.252562 -69.661091 
L 375.531901 -67.217455 
L 378.81124 -64.773818 
L 382.090579 -62.330182 
L 385.369917 -59.886545 
L 388.649256 -57.442909 
L 391.928595 -54.999273 
L 395.207934 -52.555636 
L 398.487273 -50.112 
L 398.487273 -74.304 
L 398.487273 -74.304 
L 395.207934 -74.304 
L 391.928595 -74.304 
L 388.649256 -74.304 
L 385.369917 -74.304 
L 382.090579 -74.304 
L 378.81124 -74.304 
L 375.531901 -74.304 
L 372.252562 -74.304 
L 368.973223 -74.304 
L 365.693884 -74.304 
L 362.414545 -74.304 
L 359.135207 -74.304 
L 355.855868 -74.304 
L 352.576529 -74.304 
L 349.29719 -74.304 
L 346.017851 -74.304 
L 342.738512 -74.304 
L 339.459174 -74.304 
L 336.179835 -74.304 
L 332.900496 -74.304 
L 329.621157 -74.304 
L 326.341818 -74.304 
L 323.062479 -74.304 
L 319.78314 -74.304 
L 316.503802 -74.304 
L 313.224463 -74.304 
L 309.945124 -74.304 
L 306.665785 -74.304 
L 303.386446 -74.304 
L 300.107107 -74.304 
L 296.827769 -74.304 
L 293.54843 -74.304 
L 290.269091 -74.304 
L 286.989752 -74.304 
L 283.710413 -74.304 
L 280.431074 -74.304 
L 277.151736 -74.304 
L 273.872397 -74.304 
L 270.593058 -74.304 
L 267.313719 -74.304 
L 264.03438 -74.304 
L 260.755041 -74.304 
L 257.475702 -74.304 
L 254.196364 -74.304 
L 250.917025 -74.304 
L 247.637686 -74.304 
L 244.358347 -74.304 
L 241.079008 -74.304 
L 237.799669 -74.304 
L 234.520331 -74.304 
L 231.240992 -74.304 
L 227.961653 -74.304 
L 224.682314 -74.304 
L 221.402975 -74.304 
L 218.123636 -74.304 
L 214.844298 -74.304 
L 211.564959 -74.304 
L 208.28562 -74.304 
L 205.006281 -74.304 
L 201.726942 -74.304 
L 198.447603 -74.304 
L 195.168264 -74.304 
L 191.888926 -74.304 
L 188.609587 -74.304 
L 185.330248 -74.304 
L 182.050909 -74.304 
L 178.77157 -74.304 
L 175.492231 -74.304 
L 172.212893 -74.304 
L 168.933554 -74.304 
L 165.654215 -74.304 
L 162.374876 -74.304 
L 159.095537 -74.304 
L 155.816198 -74.304 
L 152.53686 -74.304 
L 149.257521 -74.304 
L 145.978182 -74.304 
L 142.698843 -74.304 
L 139.419504 -74.304 
L 136.140165 -74.304 
L 132.860826 -74.304 
L 129.581488 -74.304 
L 126.302149 -74.304 
L 123.02281 -74.304 
L 119.743471 -74.304 
L 116.464132 -74.304 
L 113.184793 -74.304 
L 109.905455 -74.304 
L 106.626116 -74.304 
L 103.346777 -74.304 
L 100.067438 -74.304 
L 96.788099 -74.304 
L 93.50876 -74.304 
L 90.229421 -74.304 
L 86.950083 -74.304 
L 83.670744 -74.304 
L 80.391405 -74.304 
L 77.112066 -74.304 
L 73.832727 -74.304 
z
" style="stroke: #90ee90; stroke-opacity: 0.5"/>
    </defs>
    <g clip-path="url(#pd54d7a701a)">
     <use xlink:href="#me239ead7cb" x="0" y="345.6" style="fill: #90ee90; fill-opacity: 0.5; stroke: #90ee90; stroke-opacity: 0.5"/>
    </g>
   </g>
   <g id="matplotlib.axis_1">
    <g id="xtick_1">
     <g id="line2d_1">
      <path d="M 106.298182 307.584 
L 106.298182 41.472 
" clip-path="url(#pd54d7a701a)" style="fill: none; stroke: #b0b0b0; stroke-width: 0.8; stroke-linecap: square"/>
     </g>
     <g id="line2d_2">
      <defs>
       <path id="m0026d768dc" d="M 0 0 
L 0 3.5 
" style="stroke: #000000; stroke-width: 0.8"/>
      </defs>
      <g>
       <use xlink:href="#m0026d768dc" x="106.298182" y="307.584" style="stroke: #000000; stroke-width: 0.8"/>
      </g>
     </g>
     <g id="text_1">
      <!-- −4 -->
      <g transform="translate(98.927088 322.182437) scale(0.1 -0.1)">
       <defs>
        <path id="DejaVuSans-2212" d="M 678 2272 
L 4684 2272 
L 4684 1741 
L 678 1741 
L 678 2272 
z
" transform="scale(0.015625)"/>
        <path id="DejaVuSans-34" d="M 2419 4116 
L 825 1625 
L 2419 1625 
L 2419 4116 
z
M 2253 4666 
L 3047 4666 
L 3047 1625 
L 3713 1625 
L 3713 1100 
L 3047 1100 
L 3047 0 
L 2419 0 
L 2419 1100 
L 313 1100 
L 313 1709 
L 2253 4666 
z
" transform="scale(0.015625)"/>
       </defs>
       <use xlink:href="#DejaVuSans-2212"/>
       <use xlink:href="#DejaVuSans-34" x="83.789062"/>
      </g>
     </g>
    </g>
    <g id="xtick_2">
     <g id="line2d_3">
      <path d="M 171.229091 307.584 
L 171.229091 41.472 
" clip-path="url(#pd54d7a701a)" style="fill: none; stroke: #b0b0b0; stroke-width: 0.8; stroke-linecap: square"/>
     </g>
     <g id="line2d_4">
      <g>
       <use xlink:href="#m0026d768dc" x="171.229091" y="307.584" style="stroke: #000000; stroke-width: 0.8"/>
      </g>
     </g>
     <g id="text_2">
      <!-- −2 -->
      <g transform="translate(163.857997 322.182437) scale(0.1 -0.1)">
       <defs>
        <path id="DejaVuSans-32" d="M 1228 531 
L 3431 531 
L 3431 0 
L 469 0 
L 469 531 
Q 828 903 1448 1529 
Q 2069 2156 2228 2338 
Q 2531 2678 2651 2914 
Q 2772 3150 2772 3378 
Q 2772 3750 2511 3984 
Q 2250 4219 1831 4219 
Q 1534 4219 1204 4116 
Q 875 4013 500 3803 
L 500 4441 
Q 881 4594 1212 4672 
Q 1544 4750 1819 4750 
Q 2544 4750 2975 4387 
Q 3406 4025 3406 3419 
Q 3406 3131 3298 2873 
Q 3191 2616 2906 2266 
Q 2828 2175 2409 1742 
Q 1991 1309 1228 531 
z
" transform="scale(0.015625)"/>
       </defs>
       <use xlink:href="#DejaVuSans-2212"/>
       <use xlink:href="#DejaVuSans-32" x="83.789062"/>
      </g>
     </g>
    </g>
    <g id="xtick_3">
     <g id="line2d_5">
      <path d="M 236.16 307.584 
L 236.16 41.472 
" clip-path="url(#pd54d7a701a)" style="fill: none; stroke: #b0b0b0; stroke-width: 0.8; stroke-linecap: square"/>
     </g>
     <g id="line2d_6">
      <g>
       <use xlink:href="#m0026d768dc" x="236.16" y="307.584" style="stroke: #000000; stroke-width: 0.8"/>
      </g>
     </g>
     <g id="text_3">
      <!-- 0 -->
      <g transform="translate(232.97875 322.182437) scale(0.1 -0.1)">
       <defs>
        <path id="DejaVuSans-30" d="M 2034 4250 
Q 1547 4250 1301 3770 
Q 1056 3291 1056 2328 
Q 1056 1369 1301 889 
Q 1547 409 2034 409 
Q 2525 409 2770 889 
Q 3016 1369 3016 2328 
Q 3016 3291 2770 3770 
Q 2525 4250 2034 4250 
z
M 2034 4750 
Q 2819 4750 3233 4129 
Q 3647 3509 3647 2328 
Q 3647 1150 3233 529 
Q 2819 -91 2034 -91 
Q 1250 -91 836 529 
Q 422 1150 422 2328 
Q 422 3509 836 4129 
Q 1250 4750 2034 4750 
z
" transform="scale(0.015625)"/>
       </defs>
       <use xlink:href="#DejaVuSans-30"/>
      </g>
     </g>
    </g>
    <g id="xtick_4">
     <g id="line2d_7">
      <path d="M 301.090909 307.584 
L 301.090909 41.472 
" clip-path="url(#pd54d7a701a)" style="fill: none; stroke: #b0b0b0; stroke-width: 0.8; stroke-linecap: square"/>
     </g>
     <g id="line2d_8">
      <g>
       <use xlink:href="#m0026d768dc" x="301.090909" y="307.584" style="stroke: #000000; stroke-width: 0.8"/>
      </g>
     </g>
     <g id="text_4">
      <!-- 2 -->
      <g transform="translate(297.909659 322.182437) scale(0.1 -0.1)">
       <use xlink:href="#DejaVuSans-32"/>
      </g>
     </g>
    </g>
    <g id="xtick_5">
     <g id="line2d_9">
      <path d="M 366.021818 307.584 
L 366.021818 41.472 
" clip-path="url(#pd54d7a701a)" style="fill: none; stroke: #b0b0b0; stroke-width: 0.8; stroke-linecap: square"/>
     </g>
     <g id="line2d_10">
      <g>
       <use xlink:href="#m0026d768dc" x="366.021818" y="307.584" style="stroke: #000000; stroke-width: 0.8"/>
      </g>
     </g>
     <g id="text_5">
      <!-- 4 -->
      <g transform="translate(362.840568 322.182437) scale(0.1 -0.1)">
       <use xlink:href="#DejaVuSans-34"/>
      </g>
     </g>
    </g>
    <g id="text_6">
     <!-- x-axis -->
     <g transform="translate(221.379531 335.860562) scale(0.1 -0.1)">
      <defs>
       <path id="DejaVuSans-78" d="M 3513 3500 
L 2247 1797 
L 3578 0 
L 2900 0 
L 1881 1375 
L 863 0 
L 184 0 
L 1544 1831 
L 300 3500 
L 978 3500 
L 1906 2253 
L 2834 3500 
L 3513 3500 
z
" transform="scale(0.015625)"/>
       <path id="DejaVuSans-2d" d="M 313 2009 
L 1997 2009 
L 1997 1497 
L 313 1497 
L 313 2009 
z
" transform="scale(0.015625)"/>
       <path id="DejaVuSans-61" d="M 2194 1759 
Q 1497 1759 1228 1600 
Q 959 1441 959 1056 
Q 959 750 1161 570 
Q 1363 391 1709 391 
Q 2188 391 2477 730 
Q 2766 1069 2766 1631 
L 2766 1759 
L 2194 1759 
z
M 3341 1997 
L 3341 0 
L 2766 0 
L 2766 531 
Q 2569 213 2275 61 
Q 1981 -91 1556 -91 
Q 1019 -91 701 211 
Q 384 513 384 1019 
Q 384 1609 779 1909 
Q 1175 2209 1959 2209 
L 2766 2209 
L 2766 2266 
Q 2766 2663 2505 2880 
Q 2244 3097 1772 3097 
Q 1472 3097 1187 3025 
Q 903 2953 641 2809 
L 641 3341 
Q 956 3463 1253 3523 
Q 1550 3584 1831 3584 
Q 2591 3584 2966 3190 
Q 3341 2797 3341 1997 
z
" transform="scale(0.015625)"/>
       <path id="DejaVuSans-69" d="M 603 3500 
L 1178 3500 
L 1178 0 
L 603 0 
L 603 3500 
z
M 603 4863 
L 1178 4863 
L 1178 4134 
L 603 4134 
L 603 4863 
z
" transform="scale(0.015625)"/>
       <path id="DejaVuSans-73" d="M 2834 3397 
L 2834 2853 
Q 2591 2978 2328 3040 
Q 2066 3103 1784 3103 
Q 1356 3103 1142 2972 
Q 928 2841 928 2578 
Q 928 2378 1081 2264 
Q 1234 2150 1697 2047 
L 1894 2003 
Q 2506 1872 2764 1633 
Q 3022 1394 3022 966 
Q 3022 478 2636 193 
Q 2250 -91 1575 -91 
Q 1294 -91 989 -36 
Q 684 19 347 128 
L 347 722 
Q 666 556 975 473 
Q 1284 391 1588 391 
Q 1994 391 2212 530 
Q 2431 669 2431 922 
Q 2431 1156 2273 1281 
Q 2116 1406 1581 1522 
L 1381 1569 
Q 847 1681 609 1914 
Q 372 2147 372 2553 
Q 372 3047 722 3315 
Q 1072 3584 1716 3584 
Q 2034 3584 2315 3537 
Q 2597 3491 2834 3397 
z
" transform="scale(0.015625)"/>
      </defs>
      <use xlink:href="#DejaVuSans-78"/>
      <use xlink:href="#DejaVuSans-2d" x="59.179688"/>
      <use xlink:href="#DejaVuSans-61" x="95.263672"/>
      <use xlink:href="#DejaVuSans-78" x="156.542969"/>
      <use xlink:href="#DejaVuSans-69" x="215.722656"/>
      <use xlink:href="#DejaVuSans-73" x="243.505859"/>
     </g>
    </g>
   </g>
   <g id="matplotlib.axis_2">
    <g id="ytick_1">
     <g id="line2d_11">
      <path d="M 57.6 271.296 
L 414.72 271.296 
" clip-path="url(#pd54d7a701a)" style="fill: none; stroke: #b0b0b0; stroke-width: 0.8; stroke-linecap: square"/>
     </g>
     <g id="line2d_12">
      <defs>
       <path id="m5c0100629f" d="M 0 0 
L -3.5 0 
" style="stroke: #000000; stroke-width: 0.8"/>
      </defs>
      <g>
       <use xlink:href="#m5c0100629f" x="57.6" y="271.296" style="stroke: #000000; stroke-width: 0.8"/>
      </g>
     </g>
     <g id="text_7">
      <!-- −10 -->
      <g transform="translate(29.495313 275.095219) scale(0.1 -0.1)">
       <defs>
        <path id="DejaVuSans-31" d="M 794 531 
L 1825 531 
L 1825 4091 
L 703 3866 
L 703 4441 
L 1819 4666 
L 2450 4666 
L 2450 531 
L 3481 531 
L 3481 0 
L 794 0 
L 794 531 
z
" transform="scale(0.015625)"/>
       </defs>
       <use xlink:href="#DejaVuSans-2212"/>
       <use xlink:href="#DejaVuSans-31" x="83.789062"/>
       <use xlink:href="#DejaVuSans-30" x="147.412109"/>
      </g>
     </g>
    </g>
    <g id="ytick_2">
     <g id="line2d_13">
      <path d="M 57.6 230.976 
L 414.72 230.976 
" clip-path="url(#pd54d7a701a)" style="fill: none; stroke: #b0b0b0; stroke-width: 0.8; stroke-linecap: square"/>
     </g>
     <g id="line2d_14">
      <g>
       <use xlink:href="#m5c0100629f" x="57.6" y="230.976" style="stroke: #000000; stroke-width: 0.8"/>
      </g>
     </g>
     <g id="text_8">
      <!-- −5 -->
      <g transform="translate(35.857813 234.775219) scale(0.1 -0.1)">
       <defs>
        <path id="DejaVuSans-35" d="M 691 4666 
L 3169 4666 
L 3169 4134 
L 1269 4134 
L 1269 2991 
Q 1406 3038 1543 3061 
Q 1681 3084 1819 3084 
Q 2600 3084 3056 2656 
Q 3513 2228 3513 1497 
Q 3513 744 3044 326 
Q 2575 -91 1722 -91 
Q 1428 -91 1123 -41 
Q 819 9 494 109 
L 494 744 
Q 775 591 1075 516 
Q 1375 441 1709 441 
Q 2250 441 2565 725 
Q 2881 1009 2881 1497 
Q 2881 1984 2565 2268 
Q 2250 2553 1709 2553 
Q 1456 2553 1204 2497 
Q 953 2441 691 2322 
L 691 4666 
z
" transform="scale(0.015625)"/>
       </defs>
       <use xlink:href="#DejaVuSans-2212"/>
       <use xlink:href="#DejaVuSans-35" x="83.789062"/>
      </g>
     </g>
    </g>
    <g id="ytick_3">
     <g id="line2d_15">
      <path d="M 57.6 190.656 
L 414.72 190.656 
" clip-path="url(#pd54d7a701a)" style="fill: none; stroke: #b0b0b0; stroke-width: 0.8; stroke-linecap: square"/>
     </g>
     <g id="line2d_16">
      <g>
       <use xlink:href="#m5c0100629f" x="57.6" y="190.656" style="stroke: #000000; stroke-width: 0.8"/>
      </g>
     </g>
     <g id="text_9">
      <!-- 0 -->
      <g transform="translate(44.2375 194.455219) scale(0.1 -0.1)">
       <use xlink:href="#DejaVuSans-30"/>
      </g>
     </g>
    </g>
    <g id="ytick_4">
     <g id="line2d_17">
      <path d="M 57.6 150.336 
L 414.72 150.336 
" clip-path="url(#pd54d7a701a)" style="fill: none; stroke: #b0b0b0; stroke-width: 0.8; stroke-linecap: square"/>
     </g>
     <g id="line2d_18">
      <g>
       <use xlink:href="#m5c0100629f" x="57.6" y="150.336" style="stroke: #000000; stroke-width: 0.8"/>
      </g>
     </g>
     <g id="text_10">
      <!-- 5 -->
      <g transform="translate(44.2375 154.135219) scale(0.1 -0.1)">
       <use xlink:href="#DejaVuSans-35"/>
      </g>
     </g>
    </g>
    <g id="ytick_5">
     <g id="line2d_19">
      <path d="M 57.6 110.016 
L 414.72 110.016 
" clip-path="url(#pd54d7a701a)" style="fill: none; stroke: #b0b0b0; stroke-width: 0.8; stroke-linecap: square"/>
     </g>
     <g id="line2d_20">
      <g>
       <use xlink:href="#m5c0100629f" x="57.6" y="110.016" style="stroke: #000000; stroke-width: 0.8"/>
      </g>
     </g>
     <g id="text_11">
      <!-- 10 -->
      <g transform="translate(37.875 113.815219) scale(0.1 -0.1)">
       <use xlink:href="#DejaVuSans-31"/>
       <use xlink:href="#DejaVuSans-30" x="63.623047"/>
      </g>
     </g>
    </g>
    <g id="ytick_6">
     <g id="line2d_21">
      <path d="M 57.6 69.696 
L 414.72 69.696 
" clip-path="url(#pd54d7a701a)" style="fill: none; stroke: #b0b0b0; stroke-width: 0.8; stroke-linecap: square"/>
     </g>
     <g id="line2d_22">
      <g>
       <use xlink:href="#m5c0100629f" x="57.6" y="69.696" style="stroke: #000000; stroke-width: 0.8"/>
      </g>
     </g>
     <g id="text_12">
      <!-- 15 -->
      <g transform="translate(37.875 73.495219) scale(0.1 -0.1)">
       <use xlink:href="#DejaVuSans-31"/>
       <use xlink:href="#DejaVuSans-35" x="63.623047"/>
      </g>
     </g>
    </g>
    <g id="text_13">
     <!-- y-axis -->
     <g transform="translate(23.415625 189.220969) rotate(-90) scale(0.1 -0.1)">
      <defs>
       <path id="DejaVuSans-79" d="M 2059 -325 
Q 1816 -950 1584 -1140 
Q 1353 -1331 966 -1331 
L 506 -1331 
L 506 -850 
L 844 -850 
Q 1081 -850 1212 -737 
Q 1344 -625 1503 -206 
L 1606 56 
L 191 3500 
L 800 3500 
L 1894 763 
L 2988 3500 
L 3597 3500 
L 2059 -325 
z
" transform="scale(0.015625)"/>
      </defs>
      <use xlink:href="#DejaVuSans-79"/>
      <use xlink:href="#DejaVuSans-2d" x="57.429688"/>
      <use xlink:href="#DejaVuSans-61" x="93.513672"/>
      <use xlink:href="#DejaVuSans-78" x="154.792969"/>
      <use xlink:href="#DejaVuSans-69" x="213.972656"/>
      <use xlink:href="#DejaVuSans-73" x="241.755859"/>
     </g>
    </g>
   </g>
   <g id="line2d_23">
    <path d="M 73.832727 53.568 
L 77.112066 56.011636 
L 80.391405 58.455273 
L 83.670744 60.898909 
L 86.950083 63.342545 
L 90.229421 65.786182 
L 93.50876 68.229818 
L 96.788099 70.673455 
L 100.067438 73.117091 
L 103.346777 75.560727 
L 106.626116 78.004364 
L 109.905455 80.448 
L 113.184793 82.891636 
L 116.464132 85.335273 
L 119.743471 87.778909 
L 123.02281 90.222545 
L 126.302149 92.666182 
L 129.581488 95.109818 
L 132.860826 97.553455 
L 136.140165 99.997091 
L 139.419504 102.440727 
L 142.698843 104.884364 
L 145.978182 107.328 
L 149.257521 109.771636 
L 152.53686 112.215273 
L 155.816198 114.658909 
L 159.095537 117.102545 
L 162.374876 119.546182 
L 165.654215 121.989818 
L 168.933554 124.433455 
L 172.212893 126.877091 
L 175.492231 129.320727 
L 178.77157 131.764364 
L 182.050909 134.208 
L 185.330248 136.651636 
L 188.609587 139.095273 
L 191.888926 141.538909 
L 195.168264 143.982545 
L 198.447603 146.426182 
L 201.726942 148.869818 
L 205.006281 151.313455 
L 208.28562 153.757091 
L 211.564959 156.200727 
L 214.844298 158.644364 
L 218.123636 161.088 
L 221.402975 163.531636 
L 224.682314 165.975273 
L 227.961653 168.418909 
L 231.240992 170.862545 
L 234.520331 173.306182 
L 237.799669 175.749818 
L 241.079008 178.193455 
L 244.358347 180.637091 
L 247.637686 183.080727 
L 250.917025 185.524364 
L 254.196364 187.968 
L 257.475702 190.411636 
L 260.755041 192.855273 
L 264.03438 195.298909 
L 267.313719 197.742545 
L 270.593058 200.186182 
L 273.872397 202.629818 
L 277.151736 205.073455 
L 280.431074 207.517091 
L 283.710413 209.960727 
L 286.989752 212.404364 
L 290.269091 214.848 
L 293.54843 217.291636 
L 296.827769 219.735273 
L 300.107107 222.178909 
L 303.386446 224.622545 
L 306.665785 227.066182 
L 309.945124 229.509818 
L 313.224463 231.953455 
L 316.503802 234.397091 
L 319.78314 236.840727 
L 323.062479 239.284364 
L 326.341818 241.728 
L 329.621157 244.171636 
L 332.900496 246.615273 
L 336.179835 249.058909 
L 339.459174 251.502545 
L 342.738512 253.946182 
L 346.017851 256.389818 
L 349.29719 258.833455 
L 352.576529 261.277091 
L 355.855868 263.720727 
L 359.135207 266.164364 
L 362.414545 268.608 
L 365.693884 271.051636 
L 368.973223 273.495273 
L 372.252562 275.938909 
L 375.531901 278.382545 
L 378.81124 280.826182 
L 382.090579 283.269818 
L 385.369917 285.713455 
L 388.649256 288.157091 
L 391.928595 290.600727 
L 395.207934 293.044364 
L 398.487273 295.488 
" clip-path="url(#pd54d7a701a)" style="fill: none; stroke: #1f77b4; stroke-width: 1.5; stroke-linecap: square"/>
   </g>
   <g id="patch_3">
    <path d="M 57.6 307.584 
L 57.6 41.472 
" style="fill: none; stroke: #000000; stroke-width: 0.8; stroke-linejoin: miter; stroke-linecap: square"/>
   </g>
   <g id="patch_4">
    <path d="M 414.72 307.584 
L 414.72 41.472 
" style="fill: none; stroke: #000000; stroke-width: 0.8; stroke-linejoin: miter; stroke-linecap: square"/>
   </g>
   <g id="patch_5">
    <path d="M 57.6 307.584 
L 414.72 307.584 
" style="fill: none; stroke: #000000; stroke-width: 0.8; stroke-linejoin: miter; stroke-linecap: square"/>
   </g>
   <g id="patch_6">
    <path d="M 57.6 41.472 
L 414.72 41.472 
" style="fill: none; stroke: #000000; stroke-width: 0.8; stroke-linejoin: miter; stroke-linecap: square"/>
   </g>
   <g id="legend_1">
    <g id="patch_7">
     <path d="M 318.077812 78.82825 
L 407.72 78.82825 
Q 409.72 78.82825 409.72 76.82825 
L 409.72 48.472 
Q 409.72 46.472 407.72 46.472 
L 318.077812 46.472 
Q 316.077812 46.472 316.077812 48.472 
L 316.077812 76.82825 
Q 316.077812 78.82825 318.077812 78.82825 
z
" style="fill: #ffffff; opacity: 0.8; stroke: #cccccc; stroke-linejoin: miter"/>
    </g>
    <g id="line2d_24">
     <path d="M 320.077812 54.570437 
L 330.077812 54.570437 
L 340.077812 54.570437 
" style="fill: none; stroke: #1f77b4; stroke-width: 1.5; stroke-linecap: square"/>
    </g>
    <g id="text_14">
     <!-- y = -3x + 2 -->
     <g transform="translate(348.077812 58.070437) scale(0.1 -0.1)">
      <defs>
       <path id="DejaVuSans-20" transform="scale(0.015625)"/>
       <path id="DejaVuSans-3d" d="M 678 2906 
L 4684 2906 
L 4684 2381 
L 678 2381 
L 678 2906 
z
M 678 1631 
L 4684 1631 
L 4684 1100 
L 678 1100 
L 678 1631 
z
" transform="scale(0.015625)"/>
       <path id="DejaVuSans-33" d="M 2597 2516 
Q 3050 2419 3304 2112 
Q 3559 1806 3559 1356 
Q 3559 666 3084 287 
Q 2609 -91 1734 -91 
Q 1441 -91 1130 -33 
Q 819 25 488 141 
L 488 750 
Q 750 597 1062 519 
Q 1375 441 1716 441 
Q 2309 441 2620 675 
Q 2931 909 2931 1356 
Q 2931 1769 2642 2001 
Q 2353 2234 1838 2234 
L 1294 2234 
L 1294 2753 
L 1863 2753 
Q 2328 2753 2575 2939 
Q 2822 3125 2822 3475 
Q 2822 3834 2567 4026 
Q 2313 4219 1838 4219 
Q 1578 4219 1281 4162 
Q 984 4106 628 3988 
L 628 4550 
Q 988 4650 1302 4700 
Q 1616 4750 1894 4750 
Q 2613 4750 3031 4423 
Q 3450 4097 3450 3541 
Q 3450 3153 3228 2886 
Q 3006 2619 2597 2516 
z
" transform="scale(0.015625)"/>
       <path id="DejaVuSans-2b" d="M 2944 4013 
L 2944 2272 
L 4684 2272 
L 4684 1741 
L 2944 1741 
L 2944 0 
L 2419 0 
L 2419 1741 
L 678 1741 
L 678 2272 
L 2419 2272 
L 2419 4013 
L 2944 4013 
z
" transform="scale(0.015625)"/>
      </defs>
      <use xlink:href="#DejaVuSans-79"/>
      <use xlink:href="#DejaVuSans-20" x="59.179688"/>
      <use xlink:href="#DejaVuSans-3d" x="90.966797"/>
      <use xlink:href="#DejaVuSans-20" x="174.755859"/>
      <use xlink:href="#DejaVuSans-2d" x="206.542969"/>
      <use xlink:href="#DejaVuSans-33" x="242.626953"/>
      <use xlink:href="#DejaVuSans-78" x="306.25"/>
      <use xlink:href="#DejaVuSans-20" x="365.429688"/>
      <use xlink:href="#DejaVuSans-2b" x="397.216797"/>
      <use xlink:href="#DejaVuSans-20" x="481.005859"/>
      <use xlink:href="#DejaVuSans-32" x="512.792969"/>
     </g>
    </g>
    <g id="patch_8">
     <path d="M 320.077812 72.748562 
L 340.077812 72.748562 
L 340.077812 65.748562 
L 320.077812 65.748562 
z
" style="fill: #90ee90; fill-opacity: 0.5; stroke: #90ee90; stroke-opacity: 0.5; stroke-linejoin: miter"/>
    </g>
    <g id="text_15">
     <!-- y ≤ -3x + 2 -->
     <g transform="translate(348.077812 72.748562) scale(0.1 -0.1)">
      <defs>
       <path id="DejaVuSans-2264" d="M 4684 3175 
L 1684 2309 
L 4684 1453 
L 4684 897 
L 678 2047 
L 678 2578 
L 4684 3725 
L 4684 3175 
z
M 678 531 
L 4684 531 
L 4684 0 
L 678 0 
L 678 531 
z
" transform="scale(0.015625)"/>
      </defs>
      <use xlink:href="#DejaVuSans-79"/>
      <use xlink:href="#DejaVuSans-20" x="59.179688"/>
      <use xlink:href="#DejaVuSans-2264" x="90.966797"/>
      <use xlink:href="#DejaVuSans-20" x="174.755859"/>
      <use xlink:href="#DejaVuSans-2d" x="206.542969"/>
      <use xlink:href="#DejaVuSans-33" x="242.626953"/>
      <use xlink:href="#DejaVuSans-78" x="306.25"/>
      <use xlink:href="#DejaVuSans-20" x="365.429688"/>
      <use xlink:href="#DejaVuSans-2b" x="397.216797"/>
      <use xlink:href="#DejaVuSans-20" x="481.005859"/>
      <use xlink:href="#DejaVuSans-32" x="512.792969"/>
     </g>
    </g>
   </g>
  </g>
 </g>
 <defs>
  <clipPath id="pd54d7a701a">
   <rect x="57.6" y="41.472" width="357.12" height="266.112"/>
  </clipPath>
 </defs>
</svg>
