<?xml version="1.0" encoding="utf-8" standalone="no"?>
<!DOCTYPE svg PUBLIC "-//W3C//DTD SVG 1.1//EN"
  "http://www.w3.org/Graphics/SVG/1.1/DTD/svg11.dtd">
<svg xmlns:xlink="http://www.w3.org/1999/xlink" width="460.8pt" height="345.6pt" viewBox="0 0 460.8 345.6" xmlns="http://www.w3.org/2000/svg" version="1.1">
 <metadata>
  <rdf:RDF xmlns:dc="http://purl.org/dc/elements/1.1/" xmlns:cc="http://creativecommons.org/ns#" xmlns:rdf="http://www.w3.org/1999/02/22-rdf-syntax-ns#">
   <cc:Work>
    <dc:type rdf:resource="http://purl.org/dc/dcmitype/StillImage"/>
    <dc:date>2025-03-24T20:10:43.861871</dc:date>
    <dc:format>image/svg+xml</dc:format>
    <dc:creator>
     <cc:Agent>
      <dc:title>Matplotlib v3.8.0, https://matplotlib.org/</dc:title>
     </cc:Agent>
    </dc:creator>
   </cc:Work>
  </rdf:RDF>
 </metadata>
 <defs>
  <style type="text/css">*{stroke-linejoin: round; stroke-linecap: butt}</style>
 </defs>
 <g id="figure_1">
  <g id="patch_1">
   <path d="M 0 345.6 
L 460.8 345.6 
L 460.8 0 
L 0 0 
z
" style="fill: #ffffff"/>
  </g>
  <g id="axes_1">
   <g id="patch_2">
    <path d="M 57.6 307.584 
L 414.72 307.584 
L 414.72 41.472 
L 57.6 41.472 
z
" style="fill: #ffffff"/>
   </g>
   <g id="PolyCollection_1">
    <defs>
     <path id="me92c42ae97" d="M 73.832727 -50.112 
L 73.832727 -130.752 
L 77.112066 -132.381091 
L 80.391405 -134.010182 
L 83.670744 -135.639273 
L 86.950083 -137.268364 
L 90.229421 -138.897455 
L 93.50876 -140.526545 
L 96.788099 -142.155636 
L 100.067438 -143.784727 
L 103.346777 -145.413818 
L 106.626116 -147.042909 
L 109.905455 -148.672 
L 113.184793 -150.301091 
L 116.464132 -151.930182 
L 119.743471 -153.559273 
L 123.02281 -155.188364 
L 126.302149 -156.817455 
L 129.581488 -158.446545 
L 132.860826 -160.075636 
L 136.140165 -161.704727 
L 139.419504 -163.333818 
L 142.698843 -164.962909 
L 145.978182 -166.592 
L 149.257521 -168.221091 
L 152.53686 -169.850182 
L 155.816198 -171.479273 
L 159.095537 -173.108364 
L 162.374876 -174.737455 
L 165.654215 -176.366545 
L 168.933554 -177.995636 
L 172.212893 -179.624727 
L 175.492231 -181.253818 
L 178.77157 -182.882909 
L 182.050909 -184.512 
L 185.330248 -186.141091 
L 188.609587 -187.770182 
L 191.888926 -189.399273 
L 195.168264 -191.028364 
L 198.447603 -192.657455 
L 201.726942 -194.286545 
L 205.006281 -195.915636 
L 208.28562 -197.544727 
L 211.564959 -199.173818 
L 214.844298 -200.802909 
L 218.123636 -202.432 
L 221.402975 -204.061091 
L 224.682314 -205.690182 
L 227.961653 -207.319273 
L 231.240992 -208.948364 
L 234.520331 -210.577455 
L 237.799669 -212.206545 
L 241.079008 -213.835636 
L 244.358347 -215.464727 
L 247.637686 -217.093818 
L 250.917025 -218.722909 
L 254.196364 -220.352 
L 257.475702 -221.981091 
L 260.755041 -223.610182 
L 264.03438 -225.239273 
L 267.313719 -226.868364 
L 270.593058 -228.497455 
L 273.872397 -230.126545 
L 277.151736 -231.755636 
L 280.431074 -233.384727 
L 283.710413 -235.013818 
L 286.989752 -236.642909 
L 290.269091 -238.272 
L 293.54843 -239.901091 
L 296.827769 -241.530182 
L 300.107107 -243.159273 
L 303.386446 -244.788364 
L 306.665785 -246.417455 
L 309.945124 -248.046545 
L 313.224463 -249.675636 
L 316.503802 -251.304727 
L 319.78314 -252.933818 
L 323.062479 -254.562909 
L 326.341818 -256.192 
L 329.621157 -257.821091 
L 332.900496 -259.450182 
L 336.179835 -261.079273 
L 339.459174 -262.708364 
L 342.738512 -264.337455 
L 346.017851 -265.966545 
L 349.29719 -267.595636 
L 352.576529 -269.224727 
L 355.855868 -270.853818 
L 359.135207 -272.482909 
L 362.414545 -274.112 
L 365.693884 -275.741091 
L 368.973223 -277.370182 
L 372.252562 -278.999273 
L 375.531901 -280.628364 
L 378.81124 -282.257455 
L 382.090579 -283.886545 
L 385.369917 -285.515636 
L 388.649256 -287.144727 
L 391.928595 -288.773818 
L 395.207934 -290.402909 
L 398.487273 -292.032 
L 398.487273 -50.112 
L 398.487273 -50.112 
L 395.207934 -50.112 
L 391.928595 -50.112 
L 388.649256 -50.112 
L 385.369917 -50.112 
L 382.090579 -50.112 
L 378.81124 -50.112 
L 375.531901 -50.112 
L 372.252562 -50.112 
L 368.973223 -50.112 
L 365.693884 -50.112 
L 362.414545 -50.112 
L 359.135207 -50.112 
L 355.855868 -50.112 
L 352.576529 -50.112 
L 349.29719 -50.112 
L 346.017851 -50.112 
L 342.738512 -50.112 
L 339.459174 -50.112 
L 336.179835 -50.112 
L 332.900496 -50.112 
L 329.621157 -50.112 
L 326.341818 -50.112 
L 323.062479 -50.112 
L 319.78314 -50.112 
L 316.503802 -50.112 
L 313.224463 -50.112 
L 309.945124 -50.112 
L 306.665785 -50.112 
L 303.386446 -50.112 
L 300.107107 -50.112 
L 296.827769 -50.112 
L 293.54843 -50.112 
L 290.269091 -50.112 
L 286.989752 -50.112 
L 283.710413 -50.112 
L 280.431074 -50.112 
L 277.151736 -50.112 
L 273.872397 -50.112 
L 270.593058 -50.112 
L 267.313719 -50.112 
L 264.03438 -50.112 
L 260.755041 -50.112 
L 257.475702 -50.112 
L 254.196364 -50.112 
L 250.917025 -50.112 
L 247.637686 -50.112 
L 244.358347 -50.112 
L 241.079008 -50.112 
L 237.799669 -50.112 
L 234.520331 -50.112 
L 231.240992 -50.112 
L 227.961653 -50.112 
L 224.682314 -50.112 
L 221.402975 -50.112 
L 218.123636 -50.112 
L 214.844298 -50.112 
L 211.564959 -50.112 
L 208.28562 -50.112 
L 205.006281 -50.112 
L 201.726942 -50.112 
L 198.447603 -50.112 
L 195.168264 -50.112 
L 191.888926 -50.112 
L 188.609587 -50.112 
L 185.330248 -50.112 
L 182.050909 -50.112 
L 178.77157 -50.112 
L 175.492231 -50.112 
L 172.212893 -50.112 
L 168.933554 -50.112 
L 165.654215 -50.112 
L 162.374876 -50.112 
L 159.095537 -50.112 
L 155.816198 -50.112 
L 152.53686 -50.112 
L 149.257521 -50.112 
L 145.978182 -50.112 
L 142.698843 -50.112 
L 139.419504 -50.112 
L 136.140165 -50.112 
L 132.860826 -50.112 
L 129.581488 -50.112 
L 126.302149 -50.112 
L 123.02281 -50.112 
L 119.743471 -50.112 
L 116.464132 -50.112 
L 113.184793 -50.112 
L 109.905455 -50.112 
L 106.626116 -50.112 
L 103.346777 -50.112 
L 100.067438 -50.112 
L 96.788099 -50.112 
L 93.50876 -50.112 
L 90.229421 -50.112 
L 86.950083 -50.112 
L 83.670744 -50.112 
L 80.391405 -50.112 
L 77.112066 -50.112 
L 73.832727 -50.112 
z
" style="stroke: #0000ff; stroke-opacity: 0.1"/>
    </defs>
    <g clip-path="url(#p88d12ca607)">
     <use xlink:href="#me92c42ae97" x="0" y="345.6" style="fill: #0000ff; fill-opacity: 0.1; stroke: #0000ff; stroke-opacity: 0.1"/>
    </g>
   </g>
   <g id="PolyCollection_2">
    <defs>
     <path id="mfa66062bcb" d="M 73.832727 -280.512 
L 73.832727 -222.912 
L 77.112066 -222.097455 
L 80.391405 -221.282909 
L 83.670744 -220.468364 
L 86.950083 -219.653818 
L 90.229421 -218.839273 
L 93.50876 -218.024727 
L 96.788099 -217.210182 
L 100.067438 -216.395636 
L 103.346777 -215.581091 
L 106.626116 -214.766545 
L 109.905455 -213.952 
L 113.184793 -213.137455 
L 116.464132 -212.322909 
L 119.743471 -211.508364 
L 123.02281 -210.693818 
L 126.302149 -209.879273 
L 129.581488 -209.064727 
L 132.860826 -208.250182 
L 136.140165 -207.435636 
L 139.419504 -206.621091 
L 142.698843 -205.806545 
L 145.978182 -204.992 
L 149.257521 -204.177455 
L 152.53686 -203.362909 
L 155.816198 -202.548364 
L 159.095537 -201.733818 
L 162.374876 -200.919273 
L 165.654215 -200.104727 
L 168.933554 -199.290182 
L 172.212893 -198.475636 
L 175.492231 -197.661091 
L 178.77157 -196.846545 
L 182.050909 -196.032 
L 185.330248 -195.217455 
L 188.609587 -194.402909 
L 191.888926 -193.588364 
L 195.168264 -192.773818 
L 198.447603 -191.959273 
L 201.726942 -191.144727 
L 205.006281 -190.330182 
L 208.28562 -189.515636 
L 211.564959 -188.701091 
L 214.844298 -187.886545 
L 218.123636 -187.072 
L 221.402975 -186.257455 
L 224.682314 -185.442909 
L 227.961653 -184.628364 
L 231.240992 -183.813818 
L 234.520331 -182.999273 
L 237.799669 -182.184727 
L 241.079008 -181.370182 
L 244.358347 -180.555636 
L 247.637686 -179.741091 
L 250.917025 -178.926545 
L 254.196364 -178.112 
L 257.475702 -177.297455 
L 260.755041 -176.482909 
L 264.03438 -175.668364 
L 267.313719 -174.853818 
L 270.593058 -174.039273 
L 273.872397 -173.224727 
L 277.151736 -172.410182 
L 280.431074 -171.595636 
L 283.710413 -170.781091 
L 286.989752 -169.966545 
L 290.269091 -169.152 
L 293.54843 -168.337455 
L 296.827769 -167.522909 
L 300.107107 -166.708364 
L 303.386446 -165.893818 
L 306.665785 -165.079273 
L 309.945124 -164.264727 
L 313.224463 -163.450182 
L 316.503802 -162.635636 
L 319.78314 -161.821091 
L 323.062479 -161.006545 
L 326.341818 -160.192 
L 329.621157 -159.377455 
L 332.900496 -158.562909 
L 336.179835 -157.748364 
L 339.459174 -156.933818 
L 342.738512 -156.119273 
L 346.017851 -155.304727 
L 349.29719 -154.490182 
L 352.576529 -153.675636 
L 355.855868 -152.861091 
L 359.135207 -152.046545 
L 362.414545 -151.232 
L 365.693884 -150.417455 
L 368.973223 -149.602909 
L 372.252562 -148.788364 
L 375.531901 -147.973818 
L 378.81124 -147.159273 
L 382.090579 -146.344727 
L 385.369917 -145.530182 
L 388.649256 -144.715636 
L 391.928595 -143.901091 
L 395.207934 -143.086545 
L 398.487273 -142.272 
L 398.487273 -280.512 
L 398.487273 -280.512 
L 395.207934 -280.512 
L 391.928595 -280.512 
L 388.649256 -280.512 
L 385.369917 -280.512 
L 382.090579 -280.512 
L 378.81124 -280.512 
L 375.531901 -280.512 
L 372.252562 -280.512 
L 368.973223 -280.512 
L 365.693884 -280.512 
L 362.414545 -280.512 
L 359.135207 -280.512 
L 355.855868 -280.512 
L 352.576529 -280.512 
L 349.29719 -280.512 
L 346.017851 -280.512 
L 342.738512 -280.512 
L 339.459174 -280.512 
L 336.179835 -280.512 
L 332.900496 -280.512 
L 329.621157 -280.512 
L 326.341818 -280.512 
L 323.062479 -280.512 
L 319.78314 -280.512 
L 316.503802 -280.512 
L 313.224463 -280.512 
L 309.945124 -280.512 
L 306.665785 -280.512 
L 303.386446 -280.512 
L 300.107107 -280.512 
L 296.827769 -280.512 
L 293.54843 -280.512 
L 290.269091 -280.512 
L 286.989752 -280.512 
L 283.710413 -280.512 
L 280.431074 -280.512 
L 277.151736 -280.512 
L 273.872397 -280.512 
L 270.593058 -280.512 
L 267.313719 -280.512 
L 264.03438 -280.512 
L 260.755041 -280.512 
L 257.475702 -280.512 
L 254.196364 -280.512 
L 250.917025 -280.512 
L 247.637686 -280.512 
L 244.358347 -280.512 
L 241.079008 -280.512 
L 237.799669 -280.512 
L 234.520331 -280.512 
L 231.240992 -280.512 
L 227.961653 -280.512 
L 224.682314 -280.512 
L 221.402975 -280.512 
L 218.123636 -280.512 
L 214.844298 -280.512 
L 211.564959 -280.512 
L 208.28562 -280.512 
L 205.006281 -280.512 
L 201.726942 -280.512 
L 198.447603 -280.512 
L 195.168264 -280.512 
L 191.888926 -280.512 
L 188.609587 -280.512 
L 185.330248 -280.512 
L 182.050909 -280.512 
L 178.77157 -280.512 
L 175.492231 -280.512 
L 172.212893 -280.512 
L 168.933554 -280.512 
L 165.654215 -280.512 
L 162.374876 -280.512 
L 159.095537 -280.512 
L 155.816198 -280.512 
L 152.53686 -280.512 
L 149.257521 -280.512 
L 145.978182 -280.512 
L 142.698843 -280.512 
L 139.419504 -280.512 
L 136.140165 -280.512 
L 132.860826 -280.512 
L 129.581488 -280.512 
L 126.302149 -280.512 
L 123.02281 -280.512 
L 119.743471 -280.512 
L 116.464132 -280.512 
L 113.184793 -280.512 
L 109.905455 -280.512 
L 106.626116 -280.512 
L 103.346777 -280.512 
L 100.067438 -280.512 
L 96.788099 -280.512 
L 93.50876 -280.512 
L 90.229421 -280.512 
L 86.950083 -280.512 
L 83.670744 -280.512 
L 80.391405 -280.512 
L 77.112066 -280.512 
L 73.832727 -280.512 
z
" style="stroke: #ff0000; stroke-opacity: 0.1"/>
    </defs>
    <g clip-path="url(#p88d12ca607)">
     <use xlink:href="#mfa66062bcb" x="0" y="345.6" style="fill: #ff0000; fill-opacity: 0.1; stroke: #ff0000; stroke-opacity: 0.1"/>
    </g>
   </g>
   <g id="matplotlib.axis_1">
    <g id="xtick_1">
     <g id="line2d_1">
      <path d="M 73.832727 307.584 
L 73.832727 41.472 
" clip-path="url(#p88d12ca607)" style="fill: none; stroke-dasharray: 2.96,1.28; stroke-dashoffset: 0; stroke: #b0b0b0; stroke-width: 0.8"/>
     </g>
     <g id="line2d_2">
      <defs>
       <path id="m21661b6456" d="M 0 0 
L 0 3.5 
" style="stroke: #000000; stroke-width: 0.8"/>
      </defs>
      <g>
       <use xlink:href="#m21661b6456" x="73.832727" y="307.584" style="stroke: #000000; stroke-width: 0.8"/>
      </g>
     </g>
     <g id="text_1">
      <!-- −2 -->
      <g transform="translate(66.461634 322.182437) scale(0.1 -0.1)">
       <defs>
        <path id="DejaVuSans-2212" d="M 678 2272 
L 4684 2272 
L 4684 1741 
L 678 1741 
L 678 2272 
z
" transform="scale(0.015625)"/>
        <path id="DejaVuSans-32" d="M 1228 531 
L 3431 531 
L 3431 0 
L 469 0 
L 469 531 
Q 828 903 1448 1529 
Q 2069 2156 2228 2338 
Q 2531 2678 2651 2914 
Q 2772 3150 2772 3378 
Q 2772 3750 2511 3984 
Q 2250 4219 1831 4219 
Q 1534 4219 1204 4116 
Q 875 4013 500 3803 
L 500 4441 
Q 881 4594 1212 4672 
Q 1544 4750 1819 4750 
Q 2544 4750 2975 4387 
Q 3406 4025 3406 3419 
Q 3406 3131 3298 2873 
Q 3191 2616 2906 2266 
Q 2828 2175 2409 1742 
Q 1991 1309 1228 531 
z
" transform="scale(0.015625)"/>
       </defs>
       <use xlink:href="#DejaVuSans-2212"/>
       <use xlink:href="#DejaVuSans-32" x="83.789062"/>
      </g>
     </g>
    </g>
    <g id="xtick_2">
     <g id="line2d_3">
      <path d="M 120.211948 307.584 
L 120.211948 41.472 
" clip-path="url(#p88d12ca607)" style="fill: none; stroke-dasharray: 2.96,1.28; stroke-dashoffset: 0; stroke: #b0b0b0; stroke-width: 0.8"/>
     </g>
     <g id="line2d_4">
      <g>
       <use xlink:href="#m21661b6456" x="120.211948" y="307.584" style="stroke: #000000; stroke-width: 0.8"/>
      </g>
     </g>
     <g id="text_2">
      <!-- −1 -->
      <g transform="translate(112.840854 322.182437) scale(0.1 -0.1)">
       <defs>
        <path id="DejaVuSans-31" d="M 794 531 
L 1825 531 
L 1825 4091 
L 703 3866 
L 703 4441 
L 1819 4666 
L 2450 4666 
L 2450 531 
L 3481 531 
L 3481 0 
L 794 0 
L 794 531 
z
" transform="scale(0.015625)"/>
       </defs>
       <use xlink:href="#DejaVuSans-2212"/>
       <use xlink:href="#DejaVuSans-31" x="83.789062"/>
      </g>
     </g>
    </g>
    <g id="xtick_3">
     <g id="line2d_5">
      <path d="M 166.591169 307.584 
L 166.591169 41.472 
" clip-path="url(#p88d12ca607)" style="fill: none; stroke-dasharray: 2.96,1.28; stroke-dashoffset: 0; stroke: #b0b0b0; stroke-width: 0.8"/>
     </g>
     <g id="line2d_6">
      <g>
       <use xlink:href="#m21661b6456" x="166.591169" y="307.584" style="stroke: #000000; stroke-width: 0.8"/>
      </g>
     </g>
     <g id="text_3">
      <!-- 0 -->
      <g transform="translate(163.409919 322.182437) scale(0.1 -0.1)">
       <defs>
        <path id="DejaVuSans-30" d="M 2034 4250 
Q 1547 4250 1301 3770 
Q 1056 3291 1056 2328 
Q 1056 1369 1301 889 
Q 1547 409 2034 409 
Q 2525 409 2770 889 
Q 3016 1369 3016 2328 
Q 3016 3291 2770 3770 
Q 2525 4250 2034 4250 
z
M 2034 4750 
Q 2819 4750 3233 4129 
Q 3647 3509 3647 2328 
Q 3647 1150 3233 529 
Q 2819 -91 2034 -91 
Q 1250 -91 836 529 
Q 422 1150 422 2328 
Q 422 3509 836 4129 
Q 1250 4750 2034 4750 
z
" transform="scale(0.015625)"/>
       </defs>
       <use xlink:href="#DejaVuSans-30"/>
      </g>
     </g>
    </g>
    <g id="xtick_4">
     <g id="line2d_7">
      <path d="M 212.97039 307.584 
L 212.97039 41.472 
" clip-path="url(#p88d12ca607)" style="fill: none; stroke-dasharray: 2.96,1.28; stroke-dashoffset: 0; stroke: #b0b0b0; stroke-width: 0.8"/>
     </g>
     <g id="line2d_8">
      <g>
       <use xlink:href="#m21661b6456" x="212.97039" y="307.584" style="stroke: #000000; stroke-width: 0.8"/>
      </g>
     </g>
     <g id="text_4">
      <!-- 1 -->
      <g transform="translate(209.78914 322.182437) scale(0.1 -0.1)">
       <use xlink:href="#DejaVuSans-31"/>
      </g>
     </g>
    </g>
    <g id="xtick_5">
     <g id="line2d_9">
      <path d="M 259.34961 307.584 
L 259.34961 41.472 
" clip-path="url(#p88d12ca607)" style="fill: none; stroke-dasharray: 2.96,1.28; stroke-dashoffset: 0; stroke: #b0b0b0; stroke-width: 0.8"/>
     </g>
     <g id="line2d_10">
      <g>
       <use xlink:href="#m21661b6456" x="259.34961" y="307.584" style="stroke: #000000; stroke-width: 0.8"/>
      </g>
     </g>
     <g id="text_5">
      <!-- 2 -->
      <g transform="translate(256.16836 322.182437) scale(0.1 -0.1)">
       <use xlink:href="#DejaVuSans-32"/>
      </g>
     </g>
    </g>
    <g id="xtick_6">
     <g id="line2d_11">
      <path d="M 305.728831 307.584 
L 305.728831 41.472 
" clip-path="url(#p88d12ca607)" style="fill: none; stroke-dasharray: 2.96,1.28; stroke-dashoffset: 0; stroke: #b0b0b0; stroke-width: 0.8"/>
     </g>
     <g id="line2d_12">
      <g>
       <use xlink:href="#m21661b6456" x="305.728831" y="307.584" style="stroke: #000000; stroke-width: 0.8"/>
      </g>
     </g>
     <g id="text_6">
      <!-- 3 -->
      <g transform="translate(302.547581 322.182437) scale(0.1 -0.1)">
       <defs>
        <path id="DejaVuSans-33" d="M 2597 2516 
Q 3050 2419 3304 2112 
Q 3559 1806 3559 1356 
Q 3559 666 3084 287 
Q 2609 -91 1734 -91 
Q 1441 -91 1130 -33 
Q 819 25 488 141 
L 488 750 
Q 750 597 1062 519 
Q 1375 441 1716 441 
Q 2309 441 2620 675 
Q 2931 909 2931 1356 
Q 2931 1769 2642 2001 
Q 2353 2234 1838 2234 
L 1294 2234 
L 1294 2753 
L 1863 2753 
Q 2328 2753 2575 2939 
Q 2822 3125 2822 3475 
Q 2822 3834 2567 4026 
Q 2313 4219 1838 4219 
Q 1578 4219 1281 4162 
Q 984 4106 628 3988 
L 628 4550 
Q 988 4650 1302 4700 
Q 1616 4750 1894 4750 
Q 2613 4750 3031 4423 
Q 3450 4097 3450 3541 
Q 3450 3153 3228 2886 
Q 3006 2619 2597 2516 
z
" transform="scale(0.015625)"/>
       </defs>
       <use xlink:href="#DejaVuSans-33"/>
      </g>
     </g>
    </g>
    <g id="xtick_7">
     <g id="line2d_13">
      <path d="M 352.108052 307.584 
L 352.108052 41.472 
" clip-path="url(#p88d12ca607)" style="fill: none; stroke-dasharray: 2.96,1.28; stroke-dashoffset: 0; stroke: #b0b0b0; stroke-width: 0.8"/>
     </g>
     <g id="line2d_14">
      <g>
       <use xlink:href="#m21661b6456" x="352.108052" y="307.584" style="stroke: #000000; stroke-width: 0.8"/>
      </g>
     </g>
     <g id="text_7">
      <!-- 4 -->
      <g transform="translate(348.926802 322.182437) scale(0.1 -0.1)">
       <defs>
        <path id="DejaVuSans-34" d="M 2419 4116 
L 825 1625 
L 2419 1625 
L 2419 4116 
z
M 2253 4666 
L 3047 4666 
L 3047 1625 
L 3713 1625 
L 3713 1100 
L 3047 1100 
L 3047 0 
L 2419 0 
L 2419 1100 
L 313 1100 
L 313 1709 
L 2253 4666 
z
" transform="scale(0.015625)"/>
       </defs>
       <use xlink:href="#DejaVuSans-34"/>
      </g>
     </g>
    </g>
    <g id="xtick_8">
     <g id="line2d_15">
      <path d="M 398.487273 307.584 
L 398.487273 41.472 
" clip-path="url(#p88d12ca607)" style="fill: none; stroke-dasharray: 2.96,1.28; stroke-dashoffset: 0; stroke: #b0b0b0; stroke-width: 0.8"/>
     </g>
     <g id="line2d_16">
      <g>
       <use xlink:href="#m21661b6456" x="398.487273" y="307.584" style="stroke: #000000; stroke-width: 0.8"/>
      </g>
     </g>
     <g id="text_8">
      <!-- 5 -->
      <g transform="translate(395.306023 322.182437) scale(0.1 -0.1)">
       <defs>
        <path id="DejaVuSans-35" d="M 691 4666 
L 3169 4666 
L 3169 4134 
L 1269 4134 
L 1269 2991 
Q 1406 3038 1543 3061 
Q 1681 3084 1819 3084 
Q 2600 3084 3056 2656 
Q 3513 2228 3513 1497 
Q 3513 744 3044 326 
Q 2575 -91 1722 -91 
Q 1428 -91 1123 -41 
Q 819 9 494 109 
L 494 744 
Q 775 591 1075 516 
Q 1375 441 1709 441 
Q 2250 441 2565 725 
Q 2881 1009 2881 1497 
Q 2881 1984 2565 2268 
Q 2250 2553 1709 2553 
Q 1456 2553 1204 2497 
Q 953 2441 691 2322 
L 691 4666 
z
" transform="scale(0.015625)"/>
       </defs>
       <use xlink:href="#DejaVuSans-35"/>
      </g>
     </g>
    </g>
    <g id="text_9">
     <!-- x-axis -->
     <g transform="translate(221.379531 335.860562) scale(0.1 -0.1)">
      <defs>
       <path id="DejaVuSans-78" d="M 3513 3500 
L 2247 1797 
L 3578 0 
L 2900 0 
L 1881 1375 
L 863 0 
L 184 0 
L 1544 1831 
L 300 3500 
L 978 3500 
L 1906 2253 
L 2834 3500 
L 3513 3500 
z
" transform="scale(0.015625)"/>
       <path id="DejaVuSans-2d" d="M 313 2009 
L 1997 2009 
L 1997 1497 
L 313 1497 
L 313 2009 
z
" transform="scale(0.015625)"/>
       <path id="DejaVuSans-61" d="M 2194 1759 
Q 1497 1759 1228 1600 
Q 959 1441 959 1056 
Q 959 750 1161 570 
Q 1363 391 1709 391 
Q 2188 391 2477 730 
Q 2766 1069 2766 1631 
L 2766 1759 
L 2194 1759 
z
M 3341 1997 
L 3341 0 
L 2766 0 
L 2766 531 
Q 2569 213 2275 61 
Q 1981 -91 1556 -91 
Q 1019 -91 701 211 
Q 384 513 384 1019 
Q 384 1609 779 1909 
Q 1175 2209 1959 2209 
L 2766 2209 
L 2766 2266 
Q 2766 2663 2505 2880 
Q 2244 3097 1772 3097 
Q 1472 3097 1187 3025 
Q 903 2953 641 2809 
L 641 3341 
Q 956 3463 1253 3523 
Q 1550 3584 1831 3584 
Q 2591 3584 2966 3190 
Q 3341 2797 3341 1997 
z
" transform="scale(0.015625)"/>
       <path id="DejaVuSans-69" d="M 603 3500 
L 1178 3500 
L 1178 0 
L 603 0 
L 603 3500 
z
M 603 4863 
L 1178 4863 
L 1178 4134 
L 603 4134 
L 603 4863 
z
" transform="scale(0.015625)"/>
       <path id="DejaVuSans-73" d="M 2834 3397 
L 2834 2853 
Q 2591 2978 2328 3040 
Q 2066 3103 1784 3103 
Q 1356 3103 1142 2972 
Q 928 2841 928 2578 
Q 928 2378 1081 2264 
Q 1234 2150 1697 2047 
L 1894 2003 
Q 2506 1872 2764 1633 
Q 3022 1394 3022 966 
Q 3022 478 2636 193 
Q 2250 -91 1575 -91 
Q 1294 -91 989 -36 
Q 684 19 347 128 
L 347 722 
Q 666 556 975 473 
Q 1284 391 1588 391 
Q 1994 391 2212 530 
Q 2431 669 2431 922 
Q 2431 1156 2273 1281 
Q 2116 1406 1581 1522 
L 1381 1569 
Q 847 1681 609 1914 
Q 372 2147 372 2553 
Q 372 3047 722 3315 
Q 1072 3584 1716 3584 
Q 2034 3584 2315 3537 
Q 2597 3491 2834 3397 
z
" transform="scale(0.015625)"/>
      </defs>
      <use xlink:href="#DejaVuSans-78"/>
      <use xlink:href="#DejaVuSans-2d" x="59.179688"/>
      <use xlink:href="#DejaVuSans-61" x="95.263672"/>
      <use xlink:href="#DejaVuSans-78" x="156.542969"/>
      <use xlink:href="#DejaVuSans-69" x="215.722656"/>
      <use xlink:href="#DejaVuSans-73" x="243.505859"/>
     </g>
    </g>
   </g>
   <g id="matplotlib.axis_2">
    <g id="ytick_1">
     <g id="line2d_17">
      <path d="M 57.6 295.488 
L 414.72 295.488 
" clip-path="url(#p88d12ca607)" style="fill: none; stroke-dasharray: 2.96,1.28; stroke-dashoffset: 0; stroke: #b0b0b0; stroke-width: 0.8"/>
     </g>
     <g id="line2d_18">
      <defs>
       <path id="mfd5655971d" d="M 0 0 
L -3.5 0 
" style="stroke: #000000; stroke-width: 0.8"/>
      </defs>
      <g>
       <use xlink:href="#mfd5655971d" x="57.6" y="295.488" style="stroke: #000000; stroke-width: 0.8"/>
      </g>
     </g>
     <g id="text_10">
      <!-- −10 -->
      <g transform="translate(29.495313 299.287219) scale(0.1 -0.1)">
       <use xlink:href="#DejaVuSans-2212"/>
       <use xlink:href="#DejaVuSans-31" x="83.789062"/>
       <use xlink:href="#DejaVuSans-30" x="147.412109"/>
      </g>
     </g>
    </g>
    <g id="ytick_2">
     <g id="line2d_19">
      <path d="M 57.6 237.888 
L 414.72 237.888 
" clip-path="url(#p88d12ca607)" style="fill: none; stroke-dasharray: 2.96,1.28; stroke-dashoffset: 0; stroke: #b0b0b0; stroke-width: 0.8"/>
     </g>
     <g id="line2d_20">
      <g>
       <use xlink:href="#mfd5655971d" x="57.6" y="237.888" style="stroke: #000000; stroke-width: 0.8"/>
      </g>
     </g>
     <g id="text_11">
      <!-- −5 -->
      <g transform="translate(35.857813 241.687219) scale(0.1 -0.1)">
       <use xlink:href="#DejaVuSans-2212"/>
       <use xlink:href="#DejaVuSans-35" x="83.789062"/>
      </g>
     </g>
    </g>
    <g id="ytick_3">
     <g id="line2d_21">
      <path d="M 57.6 180.288 
L 414.72 180.288 
" clip-path="url(#p88d12ca607)" style="fill: none; stroke-dasharray: 2.96,1.28; stroke-dashoffset: 0; stroke: #b0b0b0; stroke-width: 0.8"/>
     </g>
     <g id="line2d_22">
      <g>
       <use xlink:href="#mfd5655971d" x="57.6" y="180.288" style="stroke: #000000; stroke-width: 0.8"/>
      </g>
     </g>
     <g id="text_12">
      <!-- 0 -->
      <g transform="translate(44.2375 184.087219) scale(0.1 -0.1)">
       <use xlink:href="#DejaVuSans-30"/>
      </g>
     </g>
    </g>
    <g id="ytick_4">
     <g id="line2d_23">
      <path d="M 57.6 122.688 
L 414.72 122.688 
" clip-path="url(#p88d12ca607)" style="fill: none; stroke-dasharray: 2.96,1.28; stroke-dashoffset: 0; stroke: #b0b0b0; stroke-width: 0.8"/>
     </g>
     <g id="line2d_24">
      <g>
       <use xlink:href="#mfd5655971d" x="57.6" y="122.688" style="stroke: #000000; stroke-width: 0.8"/>
      </g>
     </g>
     <g id="text_13">
      <!-- 5 -->
      <g transform="translate(44.2375 126.487219) scale(0.1 -0.1)">
       <use xlink:href="#DejaVuSans-35"/>
      </g>
     </g>
    </g>
    <g id="ytick_5">
     <g id="line2d_25">
      <path d="M 57.6 65.088 
L 414.72 65.088 
" clip-path="url(#p88d12ca607)" style="fill: none; stroke-dasharray: 2.96,1.28; stroke-dashoffset: 0; stroke: #b0b0b0; stroke-width: 0.8"/>
     </g>
     <g id="line2d_26">
      <g>
       <use xlink:href="#mfd5655971d" x="57.6" y="65.088" style="stroke: #000000; stroke-width: 0.8"/>
      </g>
     </g>
     <g id="text_14">
      <!-- 10 -->
      <g transform="translate(37.875 68.887219) scale(0.1 -0.1)">
       <use xlink:href="#DejaVuSans-31"/>
       <use xlink:href="#DejaVuSans-30" x="63.623047"/>
      </g>
     </g>
    </g>
    <g id="text_15">
     <!-- y-axis -->
     <g transform="translate(23.415625 189.220969) rotate(-90) scale(0.1 -0.1)">
      <defs>
       <path id="DejaVuSans-79" d="M 2059 -325 
Q 1816 -950 1584 -1140 
Q 1353 -1331 966 -1331 
L 506 -1331 
L 506 -850 
L 844 -850 
Q 1081 -850 1212 -737 
Q 1344 -625 1503 -206 
L 1606 56 
L 191 3500 
L 800 3500 
L 1894 763 
L 2988 3500 
L 3597 3500 
L 2059 -325 
z
" transform="scale(0.015625)"/>
      </defs>
      <use xlink:href="#DejaVuSans-79"/>
      <use xlink:href="#DejaVuSans-2d" x="57.429688"/>
      <use xlink:href="#DejaVuSans-61" x="93.513672"/>
      <use xlink:href="#DejaVuSans-78" x="154.792969"/>
      <use xlink:href="#DejaVuSans-69" x="213.972656"/>
      <use xlink:href="#DejaVuSans-73" x="241.755859"/>
     </g>
    </g>
   </g>
   <g id="line2d_27">
    <path d="M 73.832727 214.848 
L 77.112066 213.218909 
L 80.391405 211.589818 
L 83.670744 209.960727 
L 86.950083 208.331636 
L 90.229421 206.702545 
L 93.50876 205.073455 
L 96.788099 203.444364 
L 100.067438 201.815273 
L 103.346777 200.186182 
L 106.626116 198.557091 
L 109.905455 196.928 
L 113.184793 195.298909 
L 116.464132 193.669818 
L 119.743471 192.040727 
L 123.02281 190.411636 
L 126.302149 188.782545 
L 129.581488 187.153455 
L 132.860826 185.524364 
L 136.140165 183.895273 
L 139.419504 182.266182 
L 142.698843 180.637091 
L 145.978182 179.008 
L 149.257521 177.378909 
L 152.53686 175.749818 
L 155.816198 174.120727 
L 159.095537 172.491636 
L 162.374876 170.862545 
L 165.654215 169.233455 
L 168.933554 167.604364 
L 172.212893 165.975273 
L 175.492231 164.346182 
L 178.77157 162.717091 
L 182.050909 161.088 
L 185.330248 159.458909 
L 188.609587 157.829818 
L 191.888926 156.200727 
L 195.168264 154.571636 
L 198.447603 152.942545 
L 201.726942 151.313455 
L 205.006281 149.684364 
L 208.28562 148.055273 
L 211.564959 146.426182 
L 214.844298 144.797091 
L 218.123636 143.168 
L 221.402975 141.538909 
L 224.682314 139.909818 
L 227.961653 138.280727 
L 231.240992 136.651636 
L 234.520331 135.022545 
L 237.799669 133.393455 
L 241.079008 131.764364 
L 244.358347 130.135273 
L 247.637686 128.506182 
L 250.917025 126.877091 
L 254.196364 125.248 
L 257.475702 123.618909 
L 260.755041 121.989818 
L 264.03438 120.360727 
L 267.313719 118.731636 
L 270.593058 117.102545 
L 273.872397 115.473455 
L 277.151736 113.844364 
L 280.431074 112.215273 
L 283.710413 110.586182 
L 286.989752 108.957091 
L 290.269091 107.328 
L 293.54843 105.698909 
L 296.827769 104.069818 
L 300.107107 102.440727 
L 303.386446 100.811636 
L 306.665785 99.182545 
L 309.945124 97.553455 
L 313.224463 95.924364 
L 316.503802 94.295273 
L 319.78314 92.666182 
L 323.062479 91.037091 
L 326.341818 89.408 
L 329.621157 87.778909 
L 332.900496 86.149818 
L 336.179835 84.520727 
L 339.459174 82.891636 
L 342.738512 81.262545 
L 346.017851 79.633455 
L 349.29719 78.004364 
L 352.576529 76.375273 
L 355.855868 74.746182 
L 359.135207 73.117091 
L 362.414545 71.488 
L 365.693884 69.858909 
L 368.973223 68.229818 
L 372.252562 66.600727 
L 375.531901 64.971636 
L 378.81124 63.342545 
L 382.090579 61.713455 
L 385.369917 60.084364 
L 388.649256 58.455273 
L 391.928595 56.826182 
L 395.207934 55.197091 
L 398.487273 53.568 
" clip-path="url(#p88d12ca607)" style="fill: none; stroke: #0000ff; stroke-width: 1.5; stroke-linecap: square"/>
   </g>
   <g id="line2d_28">
    <path d="M 73.832727 122.688 
L 77.112066 123.502545 
L 80.391405 124.317091 
L 83.670744 125.131636 
L 86.950083 125.946182 
L 90.229421 126.760727 
L 93.50876 127.575273 
L 96.788099 128.389818 
L 100.067438 129.204364 
L 103.346777 130.018909 
L 106.626116 130.833455 
L 109.905455 131.648 
L 113.184793 132.462545 
L 116.464132 133.277091 
L 119.743471 134.091636 
L 123.02281 134.906182 
L 126.302149 135.720727 
L 129.581488 136.535273 
L 132.860826 137.349818 
L 136.140165 138.164364 
L 139.419504 138.978909 
L 142.698843 139.793455 
L 145.978182 140.608 
L 149.257521 141.422545 
L 152.53686 142.237091 
L 155.816198 143.051636 
L 159.095537 143.866182 
L 162.374876 144.680727 
L 165.654215 145.495273 
L 168.933554 146.309818 
L 172.212893 147.124364 
L 175.492231 147.938909 
L 178.77157 148.753455 
L 182.050909 149.568 
L 185.330248 150.382545 
L 188.609587 151.197091 
L 191.888926 152.011636 
L 195.168264 152.826182 
L 198.447603 153.640727 
L 201.726942 154.455273 
L 205.006281 155.269818 
L 208.28562 156.084364 
L 211.564959 156.898909 
L 214.844298 157.713455 
L 218.123636 158.528 
L 221.402975 159.342545 
L 224.682314 160.157091 
L 227.961653 160.971636 
L 231.240992 161.786182 
L 234.520331 162.600727 
L 237.799669 163.415273 
L 241.079008 164.229818 
L 244.358347 165.044364 
L 247.637686 165.858909 
L 250.917025 166.673455 
L 254.196364 167.488 
L 257.475702 168.302545 
L 260.755041 169.117091 
L 264.03438 169.931636 
L 267.313719 170.746182 
L 270.593058 171.560727 
L 273.872397 172.375273 
L 277.151736 173.189818 
L 280.431074 174.004364 
L 283.710413 174.818909 
L 286.989752 175.633455 
L 290.269091 176.448 
L 293.54843 177.262545 
L 296.827769 178.077091 
L 300.107107 178.891636 
L 303.386446 179.706182 
L 306.665785 180.520727 
L 309.945124 181.335273 
L 313.224463 182.149818 
L 316.503802 182.964364 
L 319.78314 183.778909 
L 323.062479 184.593455 
L 326.341818 185.408 
L 329.621157 186.222545 
L 332.900496 187.037091 
L 336.179835 187.851636 
L 339.459174 188.666182 
L 342.738512 189.480727 
L 346.017851 190.295273 
L 349.29719 191.109818 
L 352.576529 191.924364 
L 355.855868 192.738909 
L 359.135207 193.553455 
L 362.414545 194.368 
L 365.693884 195.182545 
L 368.973223 195.997091 
L 372.252562 196.811636 
L 375.531901 197.626182 
L 378.81124 198.440727 
L 382.090579 199.255273 
L 385.369917 200.069818 
L 388.649256 200.884364 
L 391.928595 201.698909 
L 395.207934 202.513455 
L 398.487273 203.328 
" clip-path="url(#p88d12ca607)" style="fill: none; stroke-dasharray: 5.55,2.4; stroke-dashoffset: 0; stroke: #ff0000; stroke-width: 1.5"/>
   </g>
   <g id="patch_3">
    <path d="M 57.6 307.584 
L 57.6 41.472 
" style="fill: none; stroke: #000000; stroke-width: 0.8; stroke-linejoin: miter; stroke-linecap: square"/>
   </g>
   <g id="patch_4">
    <path d="M 414.72 307.584 
L 414.72 41.472 
" style="fill: none; stroke: #000000; stroke-width: 0.8; stroke-linejoin: miter; stroke-linecap: square"/>
   </g>
   <g id="patch_5">
    <path d="M 57.6 307.584 
L 414.72 307.584 
" style="fill: none; stroke: #000000; stroke-width: 0.8; stroke-linejoin: miter; stroke-linecap: square"/>
   </g>
   <g id="patch_6">
    <path d="M 57.6 41.472 
L 414.72 41.472 
" style="fill: none; stroke: #000000; stroke-width: 0.8; stroke-linejoin: miter; stroke-linecap: square"/>
   </g>
   <g id="legend_1">
    <g id="patch_7">
     <path d="M 64.6 78.82825 
L 150.634375 78.82825 
Q 152.634375 78.82825 152.634375 76.82825 
L 152.634375 48.472 
Q 152.634375 46.472 150.634375 46.472 
L 64.6 46.472 
Q 62.6 46.472 62.6 48.472 
L 62.6 76.82825 
Q 62.6 78.82825 64.6 78.82825 
z
" style="fill: #ffffff; opacity: 0.8; stroke: #cccccc; stroke-linejoin: miter"/>
    </g>
    <g id="line2d_29">
     <path d="M 66.6 54.570437 
L 76.6 54.570437 
L 86.6 54.570437 
" style="fill: none; stroke: #0000ff; stroke-width: 1.5; stroke-linecap: square"/>
    </g>
    <g id="text_16">
     <!-- y ≤ 2x + 1 -->
     <g transform="translate(94.6 58.070437) scale(0.1 -0.1)">
      <defs>
       <path id="DejaVuSans-20" transform="scale(0.015625)"/>
       <path id="DejaVuSans-2264" d="M 4684 3175 
L 1684 2309 
L 4684 1453 
L 4684 897 
L 678 2047 
L 678 2578 
L 4684 3725 
L 4684 3175 
z
M 678 531 
L 4684 531 
L 4684 0 
L 678 0 
L 678 531 
z
" transform="scale(0.015625)"/>
       <path id="DejaVuSans-2b" d="M 2944 4013 
L 2944 2272 
L 4684 2272 
L 4684 1741 
L 2944 1741 
L 2944 0 
L 2419 0 
L 2419 1741 
L 678 1741 
L 678 2272 
L 2419 2272 
L 2419 4013 
L 2944 4013 
z
" transform="scale(0.015625)"/>
      </defs>
      <use xlink:href="#DejaVuSans-79"/>
      <use xlink:href="#DejaVuSans-20" x="59.179688"/>
      <use xlink:href="#DejaVuSans-2264" x="90.966797"/>
      <use xlink:href="#DejaVuSans-20" x="174.755859"/>
      <use xlink:href="#DejaVuSans-32" x="206.542969"/>
      <use xlink:href="#DejaVuSans-78" x="270.166016"/>
      <use xlink:href="#DejaVuSans-20" x="329.345703"/>
      <use xlink:href="#DejaVuSans-2b" x="361.132812"/>
      <use xlink:href="#DejaVuSans-20" x="444.921875"/>
      <use xlink:href="#DejaVuSans-31" x="476.708984"/>
     </g>
    </g>
    <g id="line2d_30">
     <path d="M 66.6 69.248562 
L 76.6 69.248562 
L 86.6 69.248562 
" style="fill: none; stroke-dasharray: 5.55,2.4; stroke-dashoffset: 0; stroke: #ff0000; stroke-width: 1.5"/>
    </g>
    <g id="text_17">
     <!-- y &gt; -x + 3 -->
     <g transform="translate(94.6 72.748562) scale(0.1 -0.1)">
      <defs>
       <path id="DejaVuSans-3e" d="M 678 3150 
L 678 3719 
L 4684 2266 
L 4684 1747 
L 678 294 
L 678 863 
L 3897 2003 
L 678 3150 
z
" transform="scale(0.015625)"/>
      </defs>
      <use xlink:href="#DejaVuSans-79"/>
      <use xlink:href="#DejaVuSans-20" x="59.179688"/>
      <use xlink:href="#DejaVuSans-3e" x="90.966797"/>
      <use xlink:href="#DejaVuSans-20" x="174.755859"/>
      <use xlink:href="#DejaVuSans-2d" x="206.542969"/>
      <use xlink:href="#DejaVuSans-78" x="242.626953"/>
      <use xlink:href="#DejaVuSans-20" x="301.806641"/>
      <use xlink:href="#DejaVuSans-2b" x="333.59375"/>
      <use xlink:href="#DejaVuSans-20" x="417.382812"/>
      <use xlink:href="#DejaVuSans-33" x="449.169922"/>
     </g>
    </g>
   </g>
  </g>
 </g>
 <defs>
  <clipPath id="p88d12ca607">
   <rect x="57.6" y="41.472" width="357.12" height="266.112"/>
  </clipPath>
 </defs>
</svg>
