<?xml version="1.0" encoding="utf-8" standalone="no"?>
<!DOCTYPE svg PUBLIC "-//W3C//DTD SVG 1.1//EN"
  "http://www.w3.org/Graphics/SVG/1.1/DTD/svg11.dtd">
<svg xmlns:xlink="http://www.w3.org/1999/xlink" width="460.8pt" height="345.6pt" viewBox="0 0 460.8 345.6" xmlns="http://www.w3.org/2000/svg" version="1.1">
 <metadata>
  <rdf:RDF xmlns:dc="http://purl.org/dc/elements/1.1/" xmlns:cc="http://creativecommons.org/ns#" xmlns:rdf="http://www.w3.org/1999/02/22-rdf-syntax-ns#">
   <cc:Work>
    <dc:type rdf:resource="http://purl.org/dc/dcmitype/StillImage"/>
    <dc:date>2025-03-23T19:00:49.969876</dc:date>
    <dc:format>image/svg+xml</dc:format>
    <dc:creator>
     <cc:Agent>
      <dc:title>Matplotlib v3.8.0, https://matplotlib.org/</dc:title>
     </cc:Agent>
    </dc:creator>
   </cc:Work>
  </rdf:RDF>
 </metadata>
 <defs>
  <style type="text/css">*{stroke-linejoin: round; stroke-linecap: butt}</style>
 </defs>
 <g id="figure_1">
  <g id="patch_1">
   <path d="M 0 345.6 
L 460.8 345.6 
L 460.8 0 
L 0 0 
z
" style="fill: #ffffff"/>
  </g>
  <g id="axes_1">
   <g id="patch_2">
    <path d="M 57.6 307.584 
L 414.72 307.584 
L 414.72 41.472 
L 57.6 41.472 
z
" style="fill: #ffffff"/>
   </g>
   <g id="PolyCollection_1">
    <defs>
     <path id="mf2238cfa25" d="M 73.832727 -292.032 
L 73.832727 -192.417882 
L 77.112066 -190.980449 
L 80.391405 -189.543016 
L 83.670744 -188.105583 
L 86.950083 -186.66815 
L 90.229421 -185.230717 
L 93.50876 -183.793283 
L 96.788099 -182.35585 
L 100.067438 -180.918417 
L 103.346777 -179.480984 
L 106.626116 -178.043551 
L 109.905455 -176.606118 
L 113.184793 -175.168684 
L 116.464132 -173.731251 
L 119.743471 -172.293818 
L 123.02281 -170.856385 
L 126.302149 -169.418952 
L 129.581488 -167.981519 
L 132.860826 -166.544086 
L 136.140165 -165.106652 
L 139.419504 -163.669219 
L 142.698843 -162.231786 
L 145.978182 -160.794353 
L 149.257521 -159.35692 
L 152.53686 -157.919487 
L 155.816198 -156.482053 
L 159.095537 -155.04462 
L 162.374876 -153.607187 
L 165.654215 -152.169754 
L 168.933554 -150.732321 
L 172.212893 -149.294888 
L 175.492231 -147.857455 
L 178.77157 -146.420021 
L 182.050909 -144.982588 
L 185.330248 -143.545155 
L 188.609587 -142.107722 
L 191.888926 -140.670289 
L 195.168264 -139.232856 
L 198.447603 -137.795422 
L 201.726942 -136.357989 
L 205.006281 -134.920556 
L 208.28562 -133.483123 
L 211.564959 -132.04569 
L 214.844298 -130.608257 
L 218.123636 -129.170824 
L 221.402975 -127.73339 
L 224.682314 -126.295957 
L 227.961653 -124.858524 
L 231.240992 -123.421091 
L 234.520331 -121.983658 
L 237.799669 -120.546225 
L 241.079008 -119.108791 
L 244.358347 -117.671358 
L 247.637686 -116.233925 
L 250.917025 -114.796492 
L 254.196364 -113.359059 
L 257.475702 -111.921626 
L 260.755041 -110.484193 
L 264.03438 -109.046759 
L 267.313719 -107.609326 
L 270.593058 -106.171893 
L 273.872397 -104.73446 
L 277.151736 -103.297027 
L 280.431074 -101.859594 
L 283.710413 -100.42216 
L 286.989752 -98.984727 
L 290.269091 -97.547294 
L 293.54843 -96.109861 
L 296.827769 -94.672428 
L 300.107107 -93.234995 
L 303.386446 -91.797561 
L 306.665785 -90.360128 
L 309.945124 -88.922695 
L 313.224463 -87.485262 
L 316.503802 -86.047829 
L 319.78314 -84.610396 
L 323.062479 -83.172963 
L 326.341818 -81.735529 
L 329.621157 -80.298096 
L 332.900496 -78.860663 
L 336.179835 -77.42323 
L 339.459174 -75.985797 
L 342.738512 -74.548364 
L 346.017851 -73.11093 
L 349.29719 -71.673497 
L 352.576529 -70.236064 
L 355.855868 -68.798631 
L 359.135207 -67.361198 
L 362.414545 -65.923765 
L 365.693884 -64.486332 
L 368.973223 -63.048898 
L 372.252562 -61.611465 
L 375.531901 -60.174032 
L 378.81124 -58.736599 
L 382.090579 -57.299166 
L 385.369917 -55.861733 
L 388.649256 -54.424299 
L 391.928595 -52.986866 
L 395.207934 -51.549433 
L 398.487273 -50.112 
L 398.487273 -292.032 
L 398.487273 -292.032 
L 395.207934 -292.032 
L 391.928595 -292.032 
L 388.649256 -292.032 
L 385.369917 -292.032 
L 382.090579 -292.032 
L 378.81124 -292.032 
L 375.531901 -292.032 
L 372.252562 -292.032 
L 368.973223 -292.032 
L 365.693884 -292.032 
L 362.414545 -292.032 
L 359.135207 -292.032 
L 355.855868 -292.032 
L 352.576529 -292.032 
L 349.29719 -292.032 
L 346.017851 -292.032 
L 342.738512 -292.032 
L 339.459174 -292.032 
L 336.179835 -292.032 
L 332.900496 -292.032 
L 329.621157 -292.032 
L 326.341818 -292.032 
L 323.062479 -292.032 
L 319.78314 -292.032 
L 316.503802 -292.032 
L 313.224463 -292.032 
L 309.945124 -292.032 
L 306.665785 -292.032 
L 303.386446 -292.032 
L 300.107107 -292.032 
L 296.827769 -292.032 
L 293.54843 -292.032 
L 290.269091 -292.032 
L 286.989752 -292.032 
L 283.710413 -292.032 
L 280.431074 -292.032 
L 277.151736 -292.032 
L 273.872397 -292.032 
L 270.593058 -292.032 
L 267.313719 -292.032 
L 264.03438 -292.032 
L 260.755041 -292.032 
L 257.475702 -292.032 
L 254.196364 -292.032 
L 250.917025 -292.032 
L 247.637686 -292.032 
L 244.358347 -292.032 
L 241.079008 -292.032 
L 237.799669 -292.032 
L 234.520331 -292.032 
L 231.240992 -292.032 
L 227.961653 -292.032 
L 224.682314 -292.032 
L 221.402975 -292.032 
L 218.123636 -292.032 
L 214.844298 -292.032 
L 211.564959 -292.032 
L 208.28562 -292.032 
L 205.006281 -292.032 
L 201.726942 -292.032 
L 198.447603 -292.032 
L 195.168264 -292.032 
L 191.888926 -292.032 
L 188.609587 -292.032 
L 185.330248 -292.032 
L 182.050909 -292.032 
L 178.77157 -292.032 
L 175.492231 -292.032 
L 172.212893 -292.032 
L 168.933554 -292.032 
L 165.654215 -292.032 
L 162.374876 -292.032 
L 159.095537 -292.032 
L 155.816198 -292.032 
L 152.53686 -292.032 
L 149.257521 -292.032 
L 145.978182 -292.032 
L 142.698843 -292.032 
L 139.419504 -292.032 
L 136.140165 -292.032 
L 132.860826 -292.032 
L 129.581488 -292.032 
L 126.302149 -292.032 
L 123.02281 -292.032 
L 119.743471 -292.032 
L 116.464132 -292.032 
L 113.184793 -292.032 
L 109.905455 -292.032 
L 106.626116 -292.032 
L 103.346777 -292.032 
L 100.067438 -292.032 
L 96.788099 -292.032 
L 93.50876 -292.032 
L 90.229421 -292.032 
L 86.950083 -292.032 
L 83.670744 -292.032 
L 80.391405 -292.032 
L 77.112066 -292.032 
L 73.832727 -292.032 
z
" style="stroke: #ffb6c1; stroke-opacity: 0.5"/>
    </defs>
    <g clip-path="url(#p0d275c32c9)">
     <use xlink:href="#mf2238cfa25" x="0" y="345.6" style="fill: #ffb6c1; fill-opacity: 0.5; stroke: #ffb6c1; stroke-opacity: 0.5"/>
    </g>
   </g>
   <g id="matplotlib.axis_1">
    <g id="xtick_1">
     <g id="line2d_1">
      <path d="M 106.298182 307.584 
L 106.298182 41.472 
" clip-path="url(#p0d275c32c9)" style="fill: none; stroke: #b0b0b0; stroke-width: 0.8; stroke-linecap: square"/>
     </g>
     <g id="line2d_2">
      <defs>
       <path id="m68e2b3ce61" d="M 0 0 
L 0 3.5 
" style="stroke: #000000; stroke-width: 0.8"/>
      </defs>
      <g>
       <use xlink:href="#m68e2b3ce61" x="106.298182" y="307.584" style="stroke: #000000; stroke-width: 0.8"/>
      </g>
     </g>
     <g id="text_1">
      <!-- −4 -->
      <g transform="translate(98.927088 322.182437) scale(0.1 -0.1)">
       <defs>
        <path id="DejaVuSans-2212" d="M 678 2272 
L 4684 2272 
L 4684 1741 
L 678 1741 
L 678 2272 
z
" transform="scale(0.015625)"/>
        <path id="DejaVuSans-34" d="M 2419 4116 
L 825 1625 
L 2419 1625 
L 2419 4116 
z
M 2253 4666 
L 3047 4666 
L 3047 1625 
L 3713 1625 
L 3713 1100 
L 3047 1100 
L 3047 0 
L 2419 0 
L 2419 1100 
L 313 1100 
L 313 1709 
L 2253 4666 
z
" transform="scale(0.015625)"/>
       </defs>
       <use xlink:href="#DejaVuSans-2212"/>
       <use xlink:href="#DejaVuSans-34" x="83.789062"/>
      </g>
     </g>
    </g>
    <g id="xtick_2">
     <g id="line2d_3">
      <path d="M 171.229091 307.584 
L 171.229091 41.472 
" clip-path="url(#p0d275c32c9)" style="fill: none; stroke: #b0b0b0; stroke-width: 0.8; stroke-linecap: square"/>
     </g>
     <g id="line2d_4">
      <g>
       <use xlink:href="#m68e2b3ce61" x="171.229091" y="307.584" style="stroke: #000000; stroke-width: 0.8"/>
      </g>
     </g>
     <g id="text_2">
      <!-- −2 -->
      <g transform="translate(163.857997 322.182437) scale(0.1 -0.1)">
       <defs>
        <path id="DejaVuSans-32" d="M 1228 531 
L 3431 531 
L 3431 0 
L 469 0 
L 469 531 
Q 828 903 1448 1529 
Q 2069 2156 2228 2338 
Q 2531 2678 2651 2914 
Q 2772 3150 2772 3378 
Q 2772 3750 2511 3984 
Q 2250 4219 1831 4219 
Q 1534 4219 1204 4116 
Q 875 4013 500 3803 
L 500 4441 
Q 881 4594 1212 4672 
Q 1544 4750 1819 4750 
Q 2544 4750 2975 4387 
Q 3406 4025 3406 3419 
Q 3406 3131 3298 2873 
Q 3191 2616 2906 2266 
Q 2828 2175 2409 1742 
Q 1991 1309 1228 531 
z
" transform="scale(0.015625)"/>
       </defs>
       <use xlink:href="#DejaVuSans-2212"/>
       <use xlink:href="#DejaVuSans-32" x="83.789062"/>
      </g>
     </g>
    </g>
    <g id="xtick_3">
     <g id="line2d_5">
      <path d="M 236.16 307.584 
L 236.16 41.472 
" clip-path="url(#p0d275c32c9)" style="fill: none; stroke: #b0b0b0; stroke-width: 0.8; stroke-linecap: square"/>
     </g>
     <g id="line2d_6">
      <g>
       <use xlink:href="#m68e2b3ce61" x="236.16" y="307.584" style="stroke: #000000; stroke-width: 0.8"/>
      </g>
     </g>
     <g id="text_3">
      <!-- 0 -->
      <g transform="translate(232.97875 322.182437) scale(0.1 -0.1)">
       <defs>
        <path id="DejaVuSans-30" d="M 2034 4250 
Q 1547 4250 1301 3770 
Q 1056 3291 1056 2328 
Q 1056 1369 1301 889 
Q 1547 409 2034 409 
Q 2525 409 2770 889 
Q 3016 1369 3016 2328 
Q 3016 3291 2770 3770 
Q 2525 4250 2034 4250 
z
M 2034 4750 
Q 2819 4750 3233 4129 
Q 3647 3509 3647 2328 
Q 3647 1150 3233 529 
Q 2819 -91 2034 -91 
Q 1250 -91 836 529 
Q 422 1150 422 2328 
Q 422 3509 836 4129 
Q 1250 4750 2034 4750 
z
" transform="scale(0.015625)"/>
       </defs>
       <use xlink:href="#DejaVuSans-30"/>
      </g>
     </g>
    </g>
    <g id="xtick_4">
     <g id="line2d_7">
      <path d="M 301.090909 307.584 
L 301.090909 41.472 
" clip-path="url(#p0d275c32c9)" style="fill: none; stroke: #b0b0b0; stroke-width: 0.8; stroke-linecap: square"/>
     </g>
     <g id="line2d_8">
      <g>
       <use xlink:href="#m68e2b3ce61" x="301.090909" y="307.584" style="stroke: #000000; stroke-width: 0.8"/>
      </g>
     </g>
     <g id="text_4">
      <!-- 2 -->
      <g transform="translate(297.909659 322.182437) scale(0.1 -0.1)">
       <use xlink:href="#DejaVuSans-32"/>
      </g>
     </g>
    </g>
    <g id="xtick_5">
     <g id="line2d_9">
      <path d="M 366.021818 307.584 
L 366.021818 41.472 
" clip-path="url(#p0d275c32c9)" style="fill: none; stroke: #b0b0b0; stroke-width: 0.8; stroke-linecap: square"/>
     </g>
     <g id="line2d_10">
      <g>
       <use xlink:href="#m68e2b3ce61" x="366.021818" y="307.584" style="stroke: #000000; stroke-width: 0.8"/>
      </g>
     </g>
     <g id="text_5">
      <!-- 4 -->
      <g transform="translate(362.840568 322.182437) scale(0.1 -0.1)">
       <use xlink:href="#DejaVuSans-34"/>
      </g>
     </g>
    </g>
    <g id="text_6">
     <!-- x-axis -->
     <g transform="translate(221.379531 335.860562) scale(0.1 -0.1)">
      <defs>
       <path id="DejaVuSans-78" d="M 3513 3500 
L 2247 1797 
L 3578 0 
L 2900 0 
L 1881 1375 
L 863 0 
L 184 0 
L 1544 1831 
L 300 3500 
L 978 3500 
L 1906 2253 
L 2834 3500 
L 3513 3500 
z
" transform="scale(0.015625)"/>
       <path id="DejaVuSans-2d" d="M 313 2009 
L 1997 2009 
L 1997 1497 
L 313 1497 
L 313 2009 
z
" transform="scale(0.015625)"/>
       <path id="DejaVuSans-61" d="M 2194 1759 
Q 1497 1759 1228 1600 
Q 959 1441 959 1056 
Q 959 750 1161 570 
Q 1363 391 1709 391 
Q 2188 391 2477 730 
Q 2766 1069 2766 1631 
L 2766 1759 
L 2194 1759 
z
M 3341 1997 
L 3341 0 
L 2766 0 
L 2766 531 
Q 2569 213 2275 61 
Q 1981 -91 1556 -91 
Q 1019 -91 701 211 
Q 384 513 384 1019 
Q 384 1609 779 1909 
Q 1175 2209 1959 2209 
L 2766 2209 
L 2766 2266 
Q 2766 2663 2505 2880 
Q 2244 3097 1772 3097 
Q 1472 3097 1187 3025 
Q 903 2953 641 2809 
L 641 3341 
Q 956 3463 1253 3523 
Q 1550 3584 1831 3584 
Q 2591 3584 2966 3190 
Q 3341 2797 3341 1997 
z
" transform="scale(0.015625)"/>
       <path id="DejaVuSans-69" d="M 603 3500 
L 1178 3500 
L 1178 0 
L 603 0 
L 603 3500 
z
M 603 4863 
L 1178 4863 
L 1178 4134 
L 603 4134 
L 603 4863 
z
" transform="scale(0.015625)"/>
       <path id="DejaVuSans-73" d="M 2834 3397 
L 2834 2853 
Q 2591 2978 2328 3040 
Q 2066 3103 1784 3103 
Q 1356 3103 1142 2972 
Q 928 2841 928 2578 
Q 928 2378 1081 2264 
Q 1234 2150 1697 2047 
L 1894 2003 
Q 2506 1872 2764 1633 
Q 3022 1394 3022 966 
Q 3022 478 2636 193 
Q 2250 -91 1575 -91 
Q 1294 -91 989 -36 
Q 684 19 347 128 
L 347 722 
Q 666 556 975 473 
Q 1284 391 1588 391 
Q 1994 391 2212 530 
Q 2431 669 2431 922 
Q 2431 1156 2273 1281 
Q 2116 1406 1581 1522 
L 1381 1569 
Q 847 1681 609 1914 
Q 372 2147 372 2553 
Q 372 3047 722 3315 
Q 1072 3584 1716 3584 
Q 2034 3584 2315 3537 
Q 2597 3491 2834 3397 
z
" transform="scale(0.015625)"/>
      </defs>
      <use xlink:href="#DejaVuSans-78"/>
      <use xlink:href="#DejaVuSans-2d" x="59.179688"/>
      <use xlink:href="#DejaVuSans-61" x="95.263672"/>
      <use xlink:href="#DejaVuSans-78" x="156.542969"/>
      <use xlink:href="#DejaVuSans-69" x="215.722656"/>
      <use xlink:href="#DejaVuSans-73" x="243.505859"/>
     </g>
    </g>
   </g>
   <g id="matplotlib.axis_2">
    <g id="ytick_1">
     <g id="line2d_11">
      <path d="M 57.6 267.026824 
L 414.72 267.026824 
" clip-path="url(#p0d275c32c9)" style="fill: none; stroke: #b0b0b0; stroke-width: 0.8; stroke-linecap: square"/>
     </g>
     <g id="line2d_12">
      <defs>
       <path id="m45f8b583e4" d="M 0 0 
L -3.5 0 
" style="stroke: #000000; stroke-width: 0.8"/>
      </defs>
      <g>
       <use xlink:href="#m45f8b583e4" x="57.6" y="267.026824" style="stroke: #000000; stroke-width: 0.8"/>
      </g>
     </g>
     <g id="text_7">
      <!-- 0 -->
      <g transform="translate(44.2375 270.826042) scale(0.1 -0.1)">
       <use xlink:href="#DejaVuSans-30"/>
      </g>
     </g>
    </g>
    <g id="ytick_2">
     <g id="line2d_13">
      <path d="M 57.6 224.335059 
L 414.72 224.335059 
" clip-path="url(#p0d275c32c9)" style="fill: none; stroke: #b0b0b0; stroke-width: 0.8; stroke-linecap: square"/>
     </g>
     <g id="line2d_14">
      <g>
       <use xlink:href="#m45f8b583e4" x="57.6" y="224.335059" style="stroke: #000000; stroke-width: 0.8"/>
      </g>
     </g>
     <g id="text_8">
      <!-- 2 -->
      <g transform="translate(44.2375 228.134278) scale(0.1 -0.1)">
       <use xlink:href="#DejaVuSans-32"/>
      </g>
     </g>
    </g>
    <g id="ytick_3">
     <g id="line2d_15">
      <path d="M 57.6 181.643294 
L 414.72 181.643294 
" clip-path="url(#p0d275c32c9)" style="fill: none; stroke: #b0b0b0; stroke-width: 0.8; stroke-linecap: square"/>
     </g>
     <g id="line2d_16">
      <g>
       <use xlink:href="#m45f8b583e4" x="57.6" y="181.643294" style="stroke: #000000; stroke-width: 0.8"/>
      </g>
     </g>
     <g id="text_9">
      <!-- 4 -->
      <g transform="translate(44.2375 185.442513) scale(0.1 -0.1)">
       <use xlink:href="#DejaVuSans-34"/>
      </g>
     </g>
    </g>
    <g id="ytick_4">
     <g id="line2d_17">
      <path d="M 57.6 138.951529 
L 414.72 138.951529 
" clip-path="url(#p0d275c32c9)" style="fill: none; stroke: #b0b0b0; stroke-width: 0.8; stroke-linecap: square"/>
     </g>
     <g id="line2d_18">
      <g>
       <use xlink:href="#m45f8b583e4" x="57.6" y="138.951529" style="stroke: #000000; stroke-width: 0.8"/>
      </g>
     </g>
     <g id="text_10">
      <!-- 6 -->
      <g transform="translate(44.2375 142.750748) scale(0.1 -0.1)">
       <defs>
        <path id="DejaVuSans-36" d="M 2113 2584 
Q 1688 2584 1439 2293 
Q 1191 2003 1191 1497 
Q 1191 994 1439 701 
Q 1688 409 2113 409 
Q 2538 409 2786 701 
Q 3034 994 3034 1497 
Q 3034 2003 2786 2293 
Q 2538 2584 2113 2584 
z
M 3366 4563 
L 3366 3988 
Q 3128 4100 2886 4159 
Q 2644 4219 2406 4219 
Q 1781 4219 1451 3797 
Q 1122 3375 1075 2522 
Q 1259 2794 1537 2939 
Q 1816 3084 2150 3084 
Q 2853 3084 3261 2657 
Q 3669 2231 3669 1497 
Q 3669 778 3244 343 
Q 2819 -91 2113 -91 
Q 1303 -91 875 529 
Q 447 1150 447 2328 
Q 447 3434 972 4092 
Q 1497 4750 2381 4750 
Q 2619 4750 2861 4703 
Q 3103 4656 3366 4563 
z
" transform="scale(0.015625)"/>
       </defs>
       <use xlink:href="#DejaVuSans-36"/>
      </g>
     </g>
    </g>
    <g id="ytick_5">
     <g id="line2d_19">
      <path d="M 57.6 96.259765 
L 414.72 96.259765 
" clip-path="url(#p0d275c32c9)" style="fill: none; stroke: #b0b0b0; stroke-width: 0.8; stroke-linecap: square"/>
     </g>
     <g id="line2d_20">
      <g>
       <use xlink:href="#m45f8b583e4" x="57.6" y="96.259765" style="stroke: #000000; stroke-width: 0.8"/>
      </g>
     </g>
     <g id="text_11">
      <!-- 8 -->
      <g transform="translate(44.2375 100.058983) scale(0.1 -0.1)">
       <defs>
        <path id="DejaVuSans-38" d="M 2034 2216 
Q 1584 2216 1326 1975 
Q 1069 1734 1069 1313 
Q 1069 891 1326 650 
Q 1584 409 2034 409 
Q 2484 409 2743 651 
Q 3003 894 3003 1313 
Q 3003 1734 2745 1975 
Q 2488 2216 2034 2216 
z
M 1403 2484 
Q 997 2584 770 2862 
Q 544 3141 544 3541 
Q 544 4100 942 4425 
Q 1341 4750 2034 4750 
Q 2731 4750 3128 4425 
Q 3525 4100 3525 3541 
Q 3525 3141 3298 2862 
Q 3072 2584 2669 2484 
Q 3125 2378 3379 2068 
Q 3634 1759 3634 1313 
Q 3634 634 3220 271 
Q 2806 -91 2034 -91 
Q 1263 -91 848 271 
Q 434 634 434 1313 
Q 434 1759 690 2068 
Q 947 2378 1403 2484 
z
M 1172 3481 
Q 1172 3119 1398 2916 
Q 1625 2713 2034 2713 
Q 2441 2713 2670 2916 
Q 2900 3119 2900 3481 
Q 2900 3844 2670 4047 
Q 2441 4250 2034 4250 
Q 1625 4250 1398 4047 
Q 1172 3844 1172 3481 
z
" transform="scale(0.015625)"/>
       </defs>
       <use xlink:href="#DejaVuSans-38"/>
      </g>
     </g>
    </g>
    <g id="ytick_6">
     <g id="line2d_21">
      <path d="M 57.6 53.568 
L 414.72 53.568 
" clip-path="url(#p0d275c32c9)" style="fill: none; stroke: #b0b0b0; stroke-width: 0.8; stroke-linecap: square"/>
     </g>
     <g id="line2d_22">
      <g>
       <use xlink:href="#m45f8b583e4" x="57.6" y="53.568" style="stroke: #000000; stroke-width: 0.8"/>
      </g>
     </g>
     <g id="text_12">
      <!-- 10 -->
      <g transform="translate(37.875 57.367219) scale(0.1 -0.1)">
       <defs>
        <path id="DejaVuSans-31" d="M 794 531 
L 1825 531 
L 1825 4091 
L 703 3866 
L 703 4441 
L 1819 4666 
L 2450 4666 
L 2450 531 
L 3481 531 
L 3481 0 
L 794 0 
L 794 531 
z
" transform="scale(0.015625)"/>
       </defs>
       <use xlink:href="#DejaVuSans-31"/>
       <use xlink:href="#DejaVuSans-30" x="63.623047"/>
      </g>
     </g>
    </g>
    <g id="text_13">
     <!-- y-axis -->
     <g transform="translate(31.795312 189.220969) rotate(-90) scale(0.1 -0.1)">
      <defs>
       <path id="DejaVuSans-79" d="M 2059 -325 
Q 1816 -950 1584 -1140 
Q 1353 -1331 966 -1331 
L 506 -1331 
L 506 -850 
L 844 -850 
Q 1081 -850 1212 -737 
Q 1344 -625 1503 -206 
L 1606 56 
L 191 3500 
L 800 3500 
L 1894 763 
L 2988 3500 
L 3597 3500 
L 2059 -325 
z
" transform="scale(0.015625)"/>
      </defs>
      <use xlink:href="#DejaVuSans-79"/>
      <use xlink:href="#DejaVuSans-2d" x="57.429688"/>
      <use xlink:href="#DejaVuSans-61" x="93.513672"/>
      <use xlink:href="#DejaVuSans-78" x="154.792969"/>
      <use xlink:href="#DejaVuSans-69" x="213.972656"/>
      <use xlink:href="#DejaVuSans-73" x="241.755859"/>
     </g>
    </g>
   </g>
   <g id="line2d_23">
    <path d="M 73.832727 153.182118 
L 77.112066 154.619551 
L 80.391405 156.056984 
L 83.670744 157.494417 
L 86.950083 158.93185 
L 90.229421 160.369283 
L 93.50876 161.806717 
L 96.788099 163.24415 
L 100.067438 164.681583 
L 103.346777 166.119016 
L 106.626116 167.556449 
L 109.905455 168.993882 
L 113.184793 170.431316 
L 116.464132 171.868749 
L 119.743471 173.306182 
L 123.02281 174.743615 
L 126.302149 176.181048 
L 129.581488 177.618481 
L 132.860826 179.055914 
L 136.140165 180.493348 
L 139.419504 181.930781 
L 142.698843 183.368214 
L 145.978182 184.805647 
L 149.257521 186.24308 
L 152.53686 187.680513 
L 155.816198 189.117947 
L 159.095537 190.55538 
L 162.374876 191.992813 
L 165.654215 193.430246 
L 168.933554 194.867679 
L 172.212893 196.305112 
L 175.492231 197.742545 
L 178.77157 199.179979 
L 182.050909 200.617412 
L 185.330248 202.054845 
L 188.609587 203.492278 
L 191.888926 204.929711 
L 195.168264 206.367144 
L 198.447603 207.804578 
L 201.726942 209.242011 
L 205.006281 210.679444 
L 208.28562 212.116877 
L 211.564959 213.55431 
L 214.844298 214.991743 
L 218.123636 216.429176 
L 221.402975 217.86661 
L 224.682314 219.304043 
L 227.961653 220.741476 
L 231.240992 222.178909 
L 234.520331 223.616342 
L 237.799669 225.053775 
L 241.079008 226.491209 
L 244.358347 227.928642 
L 247.637686 229.366075 
L 250.917025 230.803508 
L 254.196364 232.240941 
L 257.475702 233.678374 
L 260.755041 235.115807 
L 264.03438 236.553241 
L 267.313719 237.990674 
L 270.593058 239.428107 
L 273.872397 240.86554 
L 277.151736 242.302973 
L 280.431074 243.740406 
L 283.710413 245.17784 
L 286.989752 246.615273 
L 290.269091 248.052706 
L 293.54843 249.490139 
L 296.827769 250.927572 
L 300.107107 252.365005 
L 303.386446 253.802439 
L 306.665785 255.239872 
L 309.945124 256.677305 
L 313.224463 258.114738 
L 316.503802 259.552171 
L 319.78314 260.989604 
L 323.062479 262.427037 
L 326.341818 263.864471 
L 329.621157 265.301904 
L 332.900496 266.739337 
L 336.179835 268.17677 
L 339.459174 269.614203 
L 342.738512 271.051636 
L 346.017851 272.48907 
L 349.29719 273.926503 
L 352.576529 275.363936 
L 355.855868 276.801369 
L 359.135207 278.238802 
L 362.414545 279.676235 
L 365.693884 281.113668 
L 368.973223 282.551102 
L 372.252562 283.988535 
L 375.531901 285.425968 
L 378.81124 286.863401 
L 382.090579 288.300834 
L 385.369917 289.738267 
L 388.649256 291.175701 
L 391.928595 292.613134 
L 395.207934 294.050567 
L 398.487273 295.488 
" clip-path="url(#p0d275c32c9)" style="fill: none; stroke: #1f77b4; stroke-width: 1.5; stroke-linecap: square"/>
   </g>
   <g id="patch_3">
    <path d="M 57.6 307.584 
L 57.6 41.472 
" style="fill: none; stroke: #000000; stroke-width: 0.8; stroke-linejoin: miter; stroke-linecap: square"/>
   </g>
   <g id="patch_4">
    <path d="M 414.72 307.584 
L 414.72 41.472 
" style="fill: none; stroke: #000000; stroke-width: 0.8; stroke-linejoin: miter; stroke-linecap: square"/>
   </g>
   <g id="patch_5">
    <path d="M 57.6 307.584 
L 414.72 307.584 
" style="fill: none; stroke: #000000; stroke-width: 0.8; stroke-linejoin: miter; stroke-linecap: square"/>
   </g>
   <g id="patch_6">
    <path d="M 57.6 41.472 
L 414.72 41.472 
" style="fill: none; stroke: #000000; stroke-width: 0.8; stroke-linejoin: miter; stroke-linecap: square"/>
   </g>
   <g id="legend_1">
    <g id="patch_7">
     <path d="M 315.323125 78.82825 
L 407.72 78.82825 
Q 409.72 78.82825 409.72 76.82825 
L 409.72 48.472 
Q 409.72 46.472 407.72 46.472 
L 315.323125 46.472 
Q 313.323125 46.472 313.323125 48.472 
L 313.323125 76.82825 
Q 313.323125 78.82825 315.323125 78.82825 
z
" style="fill: #ffffff; opacity: 0.8; stroke: #cccccc; stroke-linejoin: miter"/>
    </g>
    <g id="line2d_24">
     <path d="M 317.323125 54.570437 
L 327.323125 54.570437 
L 337.323125 54.570437 
" style="fill: none; stroke: #1f77b4; stroke-width: 1.5; stroke-linecap: square"/>
    </g>
    <g id="text_14">
     <!-- 2x + 3y = 6 -->
     <g transform="translate(345.323125 58.070437) scale(0.1 -0.1)">
      <defs>
       <path id="DejaVuSans-20" transform="scale(0.015625)"/>
       <path id="DejaVuSans-2b" d="M 2944 4013 
L 2944 2272 
L 4684 2272 
L 4684 1741 
L 2944 1741 
L 2944 0 
L 2419 0 
L 2419 1741 
L 678 1741 
L 678 2272 
L 2419 2272 
L 2419 4013 
L 2944 4013 
z
" transform="scale(0.015625)"/>
       <path id="DejaVuSans-33" d="M 2597 2516 
Q 3050 2419 3304 2112 
Q 3559 1806 3559 1356 
Q 3559 666 3084 287 
Q 2609 -91 1734 -91 
Q 1441 -91 1130 -33 
Q 819 25 488 141 
L 488 750 
Q 750 597 1062 519 
Q 1375 441 1716 441 
Q 2309 441 2620 675 
Q 2931 909 2931 1356 
Q 2931 1769 2642 2001 
Q 2353 2234 1838 2234 
L 1294 2234 
L 1294 2753 
L 1863 2753 
Q 2328 2753 2575 2939 
Q 2822 3125 2822 3475 
Q 2822 3834 2567 4026 
Q 2313 4219 1838 4219 
Q 1578 4219 1281 4162 
Q 984 4106 628 3988 
L 628 4550 
Q 988 4650 1302 4700 
Q 1616 4750 1894 4750 
Q 2613 4750 3031 4423 
Q 3450 4097 3450 3541 
Q 3450 3153 3228 2886 
Q 3006 2619 2597 2516 
z
" transform="scale(0.015625)"/>
       <path id="DejaVuSans-3d" d="M 678 2906 
L 4684 2906 
L 4684 2381 
L 678 2381 
L 678 2906 
z
M 678 1631 
L 4684 1631 
L 4684 1100 
L 678 1100 
L 678 1631 
z
" transform="scale(0.015625)"/>
      </defs>
      <use xlink:href="#DejaVuSans-32"/>
      <use xlink:href="#DejaVuSans-78" x="63.623047"/>
      <use xlink:href="#DejaVuSans-20" x="122.802734"/>
      <use xlink:href="#DejaVuSans-2b" x="154.589844"/>
      <use xlink:href="#DejaVuSans-20" x="238.378906"/>
      <use xlink:href="#DejaVuSans-33" x="270.166016"/>
      <use xlink:href="#DejaVuSans-79" x="333.789062"/>
      <use xlink:href="#DejaVuSans-20" x="392.96875"/>
      <use xlink:href="#DejaVuSans-3d" x="424.755859"/>
      <use xlink:href="#DejaVuSans-20" x="508.544922"/>
      <use xlink:href="#DejaVuSans-36" x="540.332031"/>
     </g>
    </g>
    <g id="patch_8">
     <path d="M 317.323125 72.748562 
L 337.323125 72.748562 
L 337.323125 65.748562 
L 317.323125 65.748562 
z
" style="fill: #ffb6c1; fill-opacity: 0.5; stroke: #ffb6c1; stroke-opacity: 0.5; stroke-linejoin: miter"/>
    </g>
    <g id="text_15">
     <!-- 2x + 3y ≥ 6 -->
     <g transform="translate(345.323125 72.748562) scale(0.1 -0.1)">
      <defs>
       <path id="DejaVuSans-2265" d="M 678 3175 
L 678 3725 
L 4684 2578 
L 4684 2047 
L 678 897 
L 678 1453 
L 3681 2309 
L 678 3175 
z
M 4684 531 
L 4684 0 
L 678 0 
L 678 531 
L 4684 531 
z
" transform="scale(0.015625)"/>
      </defs>
      <use xlink:href="#DejaVuSans-32"/>
      <use xlink:href="#DejaVuSans-78" x="63.623047"/>
      <use xlink:href="#DejaVuSans-20" x="122.802734"/>
      <use xlink:href="#DejaVuSans-2b" x="154.589844"/>
      <use xlink:href="#DejaVuSans-20" x="238.378906"/>
      <use xlink:href="#DejaVuSans-33" x="270.166016"/>
      <use xlink:href="#DejaVuSans-79" x="333.789062"/>
      <use xlink:href="#DejaVuSans-20" x="392.96875"/>
      <use xlink:href="#DejaVuSans-2265" x="424.755859"/>
      <use xlink:href="#DejaVuSans-20" x="508.544922"/>
      <use xlink:href="#DejaVuSans-36" x="540.332031"/>
     </g>
    </g>
   </g>
  </g>
 </g>
 <defs>
  <clipPath id="p0d275c32c9">
   <rect x="57.6" y="41.472" width="357.12" height="266.112"/>
  </clipPath>
 </defs>
</svg>
